<?xml version="1.0" encoding="iso-8859-1"?>
<!-- Generator: Adobe Illustrator 24.3.0, SVG Export Plug-In . SVG Version: 6.00 Build 0)  -->
<svg version="1.1" id="Layer_1" xmlns="http://www.w3.org/2000/svg" xmlns:xlink="http://www.w3.org/1999/xlink" x="0px" y="0px"
	 viewBox="0 0 64 64" xml:space="preserve">
<path fill="#B17F4A" d="M11.896,4.733v0.241c0,1.009-1,0.509-1,0.509h-2c-0.1763,0.5885-0.5246,1.1109-1,1.5
	c-0.085,0.322-0.2258,0.6266-0.416,0.9C7.4237,7.9501,7.4049,8.041,7.43,8.125l0.458,1.55c0.0052,0.0189,0.0078,0.0384,0.008,0.058
	c0,0.1381-0.1119,0.25-0.25,0.25C7.5363,9.9829,7.4385,9.9135,7.402,9.81L6.896,7.983v-0.5h-3.25l-0.21,0.42
	c-0.026,0.052-0.0331,0.1114-0.02,0.168l0.48,1.662c0,0.1381-0.1119,0.25-0.25,0.25C3.5392,9.9798,3.4452,9.9116,3.409,9.811
	L2.896,7.983v-0.5C2.6109,7.4668,2.3283,7.4202,2.053,7.344c-0.0057,0.4047-0.1884,0.7866-0.5,1.045
	C1.4609,8.4504,1.4222,8.5666,1.459,8.671l0.414,0.99c0.0078,0.0232,0.0115,0.0475,0.011,0.072c0,0.1381-0.1119,0.25-0.25,0.25
	C1.5357,9.9821,1.4468,9.9244,1.406,9.835l-0.51-1.352c0.1113-0.662,0.1113-1.338,0-2v-2C0.8929,3.6623,1.5556,2.9944,2.3763,2.9913
	C2.5536,2.9906,2.7297,3.0216,2.896,3.083c0,0,0.768,0.132,1.1,0.154c0.3078,0.0012,0.6131-0.0554,0.9-0.167
	c0.1612-0.0544,0.3299-0.0837,0.5-0.087C5.6955,2.9904,5.9873,3.0792,6.24,3.24c0.2871,0.1205,0.5903,0.198,0.9,0.23l0.756,0.013
	c0,0,0.966-0.484,1-0.5v-0.5l0.5,0.5c0.3607-0.4434,0.9453-0.6383,1.5-0.5c-0.4083-0.0804-0.8194,0.1251-1,0.5l1,1l0.68,0.529
	c0.0224-0.0117,0.0458-0.0214,0.07-0.029c0.1313-0.0068,0.2432,0.0941,0.25,0.2254C11.8965,4.7166,11.8965,4.7248,11.896,4.733z"/>
<path fill="#B17F4A" d="M29.896,13.733v0.241c0,1.009-1,0.509-1,0.509h-2c-0.1763,0.5885-0.5246,1.1109-1,1.5
	c-0.085,0.322-0.2258,0.6266-0.416,0.9c-0.0564,0.0671-0.0752,0.1581-0.05,0.242l0.458,1.55
	c0.0052,0.0189,0.0078,0.0384,0.008,0.058c0,0.1381-0.1119,0.25-0.25,0.25c-0.1098-0.0001-0.2075-0.0695-0.244-0.173l-0.506-1.827
	v-0.5h-3.25l-0.21,0.42c-0.026,0.052-0.0331,0.1114-0.02,0.168l0.48,1.662c0,0.1381-0.1119,0.25-0.25,0.25
	c-0.1068-0.0032-0.2009-0.0714-0.237-0.172l-0.513-1.828v-0.5c-0.2851-0.0162-0.5677-0.0628-0.843-0.139
	c-0.0057,0.4047-0.1884,0.7866-0.5,1.045c-0.0922,0.0614-0.1309,0.1776-0.094,0.282l0.414,0.99
	c0.0078,0.0232,0.0115,0.0475,0.011,0.072c0,0.1381-0.1119,0.25-0.25,0.25c-0.0983-0.0008-0.1872-0.0586-0.228-0.148l-0.51-1.352
	c0.1113-0.662,0.1113-1.338,0-2v-2c-0.0032-0.8207,0.6596-1.4886,1.4803-1.4917c0.1773-0.0007,0.3534,0.0304,0.5197,0.0917
	c0,0,0.768,0.132,1.1,0.154c0.3078,0.0012,0.6131-0.0554,0.9-0.167c0.1612-0.0544,0.3299-0.0837,0.5-0.087
	c0.2995,0.0074,0.5913,0.0962,0.844,0.257c0.2871,0.1205,0.5903,0.198,0.9,0.23l0.756,0.013c0,0,0.966-0.484,1-0.5v-0.5l0.5,0.5
	c0.3607-0.4434,0.9453-0.6383,1.5-0.5c-0.4083-0.0804-0.8194,0.1251-1,0.5l1,1l0.68,0.529c0.0224-0.0117,0.0459-0.0214,0.07-0.029
	c0.1313-0.0068,0.2432,0.0941,0.25,0.2254C29.8965,13.7166,29.8965,13.7248,29.896,13.733z"/>
<path fill="#B17F4A" d="M16.896,30.733v0.241c0,1.009-1,0.509-1,0.509h-2c-0.1763,0.5885-0.5246,1.1109-1,1.5
	c-0.085,0.322-0.2258,0.6266-0.416,0.9c-0.0564,0.0671-0.0752,0.1581-0.05,0.242l0.458,1.55
	c0.0052,0.0189,0.0078,0.0384,0.008,0.058c0,0.1381-0.1119,0.25-0.25,0.25c-0.1098-0.0001-0.2075-0.0695-0.244-0.173l-0.506-1.827
	v-0.5h-3.25l-0.21,0.42c-0.026,0.052-0.0331,0.1114-0.02,0.168l0.48,1.662c0,0.1381-0.1119,0.25-0.25,0.25
	c-0.1068-0.0032-0.2009-0.0714-0.237-0.172l-0.513-1.828v-0.5c-0.2851-0.0162-0.5677-0.0628-0.843-0.139
	c-0.0057,0.4047-0.1884,0.7866-0.5,1.045c-0.0922,0.0614-0.1309,0.1776-0.094,0.282l0.414,0.99
	c0.0078,0.0232,0.0115,0.0475,0.011,0.072c0,0.1381-0.1119,0.25-0.25,0.25c-0.0983-0.0009-0.1872-0.0586-0.228-0.148l-0.51-1.352
	c0.1113-0.662,0.1113-1.338,0-2v-2c-0.0032-0.8207,0.6596-1.4886,1.4803-1.4917c0.1773-0.0007,0.3534,0.0304,0.5197,0.0917
	c0,0,0.768,0.132,1.1,0.154c0.3078,0.0012,0.6131-0.0554,0.9-0.167c0.1612-0.0544,0.3299-0.0837,0.5-0.087
	c0.2995,0.0074,0.5913,0.0962,0.844,0.257c0.2871,0.1205,0.5903,0.198,0.9,0.23l0.756,0.013c0,0,0.966-0.484,1-0.5v-0.5l0.5,0.5
	c0.3607-0.4434,0.9453-0.6383,1.5-0.5c-0.4083-0.0804-0.8194,0.1251-1,0.5l1,1l0.68,0.529c0.0224-0.0117,0.0459-0.0214,0.07-0.029
	c0.1313-0.0068,0.2432,0.0941,0.25,0.2254C16.8965,30.7166,16.8965,30.7248,16.896,30.733z"/>
<path fill="#B17F4A" d="M26.896,45.733v0.241c0,1.009-1,0.509-1,0.509h-2c-0.1763,0.5885-0.5246,1.1109-1,1.5
	c-0.085,0.322-0.2258,0.6266-0.416,0.9c-0.0564,0.0671-0.0752,0.1581-0.05,0.242l0.458,1.55
	c0.0052,0.0189,0.0078,0.0384,0.008,0.058c0,0.1381-0.1119,0.25-0.25,0.25c-0.1098-0.0001-0.2075-0.0695-0.244-0.173l-0.506-1.827
	v-0.5h-3.25l-0.21,0.42c-0.026,0.052-0.0331,0.1114-0.02,0.168l0.48,1.662c0,0.1381-0.1119,0.25-0.25,0.25
	c-0.1068-0.0032-0.2009-0.0714-0.237-0.172l-0.513-1.828v-0.5c-0.2851-0.0162-0.5677-0.0628-0.843-0.139
	c-0.0057,0.4047-0.1884,0.7866-0.5,1.045c-0.0922,0.0614-0.1309,0.1776-0.094,0.282l0.414,0.99
	c0.0078,0.0232,0.0115,0.0475,0.011,0.072c0,0.1381-0.1119,0.25-0.25,0.25c-0.0983-0.0009-0.1872-0.0586-0.228-0.148l-0.51-1.352
	c0.1113-0.662,0.1113-1.338,0-2v-2c-0.0032-0.8207,0.6596-1.4886,1.4803-1.4917c0.1773-0.0007,0.3534,0.0304,0.5197,0.0917
	c0,0,0.768,0.132,1.1,0.154c0.3078,0.0012,0.6131-0.0555,0.9-0.167c0.1612-0.0544,0.3299-0.0837,0.5-0.087
	c0.2995,0.0074,0.5913,0.0962,0.844,0.257c0.2871,0.1205,0.5903,0.198,0.9,0.23l0.756,0.013c0,0,0.966-0.484,1-0.5v-0.5l0.5,0.5
	c0.3607-0.4434,0.9453-0.6383,1.5-0.5c-0.4083-0.0804-0.8194,0.1251-1,0.5l1,1l0.68,0.529c0.0224-0.0117,0.0459-0.0214,0.07-0.029
	c0.1313-0.0068,0.2432,0.0941,0.25,0.2254C26.8965,45.7166,26.8965,45.7248,26.896,45.733z"/>
<path fill="#B17F4A" d="M56.896,41.733v0.241c0,1.009-1,0.509-1,0.509h-2c-0.1763,0.5885-0.5246,1.1109-1,1.5
	c-0.085,0.322-0.2258,0.6266-0.416,0.9c-0.0564,0.0671-0.0752,0.1581-0.05,0.242l0.458,1.55
	c0.0052,0.0189,0.0078,0.0384,0.008,0.058c0,0.1381-0.1119,0.25-0.25,0.25c-0.1098-0.0001-0.2076-0.0695-0.244-0.173l-0.506-1.827
	v-0.5h-3.25l-0.21,0.42c-0.026,0.052-0.0331,0.1114-0.02,0.168l0.48,1.662c0,0.1381-0.1119,0.25-0.25,0.25
	c-0.1068-0.0032-0.2009-0.0714-0.237-0.172l-0.513-1.828v-0.5c-0.2851-0.0162-0.5677-0.0628-0.843-0.139
	c-0.0057,0.4047-0.1884,0.7866-0.5,1.045c-0.0922,0.0614-0.1309,0.1776-0.094,0.282l0.414,0.99
	c0.0078,0.0232,0.0115,0.0475,0.011,0.072c0,0.1381-0.1119,0.25-0.25,0.25c-0.0983-0.0009-0.1872-0.0586-0.228-0.148l-0.51-1.352
	c0.1113-0.662,0.1113-1.338,0-2v-2c-0.0032-0.8207,0.6596-1.4886,1.4803-1.4917c0.1773-0.0007,0.3534,0.0304,0.5197,0.0917
	c0,0,0.768,0.132,1.1,0.154c0.3078,0.0012,0.6131-0.0555,0.9-0.167c0.1612-0.0544,0.3299-0.0837,0.5-0.087
	c0.2995,0.0074,0.5913,0.0962,0.844,0.257c0.2871,0.1205,0.5903,0.198,0.9,0.23l0.756,0.013c0,0,0.966-0.484,1-0.5v-0.5l0.5,0.5
	c0.3607-0.4434,0.9453-0.6383,1.5-0.5c-0.4083-0.0804-0.8194,0.1251-1,0.5l1,1l0.68,0.529c0.0224-0.0117,0.0458-0.0214,0.07-0.029
	c0.1313-0.0068,0.2432,0.0941,0.25,0.2254C56.8965,41.7166,56.8965,41.7248,56.896,41.733z"/>
<path fill="#B17F4A" d="M52.896,18.733v0.241c0,1.009-1,0.509-1,0.509h-2c-0.1763,0.5885-0.5246,1.1109-1,1.5
	c-0.085,0.322-0.2258,0.6266-0.416,0.9c-0.0564,0.0671-0.0752,0.1581-0.05,0.242l0.458,1.55
	c0.0052,0.0189,0.0078,0.0384,0.008,0.058c0,0.1381-0.1119,0.25-0.25,0.25c-0.1098-0.0001-0.2076-0.0695-0.244-0.173l-0.506-1.827
	v-0.5h-3.25l-0.21,0.42c-0.026,0.052-0.0331,0.1114-0.02,0.168l0.48,1.662c0,0.1381-0.1119,0.25-0.25,0.25
	c-0.1068-0.0032-0.2009-0.0714-0.237-0.172l-0.513-1.828v-0.5c-0.2851-0.0162-0.5677-0.0628-0.843-0.139
	c-0.0057,0.4047-0.1884,0.7866-0.5,1.045c-0.0922,0.0614-0.1309,0.1776-0.094,0.282l0.414,0.99
	c0.0078,0.0232,0.0115,0.0475,0.011,0.072c0,0.1381-0.1119,0.25-0.25,0.25c-0.0983-0.0008-0.1872-0.0586-0.228-0.148l-0.51-1.352
	c0.1113-0.662,0.1113-1.338,0-2v-2c-0.0032-0.8207,0.6596-1.4886,1.4803-1.4917c0.1773-0.0007,0.3534,0.0304,0.5197,0.0917
	c0,0,0.768,0.132,1.1,0.154c0.3078,0.0012,0.6131-0.0554,0.9-0.167c0.1612-0.0544,0.3299-0.0837,0.5-0.087
	c0.2995,0.0074,0.5913,0.0962,0.844,0.257c0.2871,0.1205,0.5903,0.198,0.9,0.23l0.756,0.013c0,0,0.966-0.484,1-0.5v-0.5l0.5,0.5
	c0.3607-0.4434,0.9453-0.6383,1.5-0.5c-0.4083-0.0804-0.8194,0.1251-1,0.5l1,1l0.68,0.529c0.0224-0.0117,0.0458-0.0214,0.07-0.029
	c0.1313-0.0068,0.2432,0.0941,0.25,0.2254C52.8965,18.7166,52.8965,18.7248,52.896,18.733z"/>
</svg>
