<svg id="Layer_1" data-name="Layer 1" xmlns="http://www.w3.org/2000/svg" width="64" height="64" viewBox="0 0 64 64">
  <path d="M39.28,5.36v.33c0,1.25-1.25.64-1.25.64h-2.5a4,4,0,0,1-1.25,1.88,3.6,3.6,0,0,1-.53,1.12.32.32,0,0,0,0,.3l.58,1.94v.07a.32.32,0,0,1-.28.36h0a.33.33,0,0,1-.31-.22L33,9.44V8.82H29l-.26.52a.28.28,0,0,0,0,.22l.6,2.07a.31.31,0,0,1-.31.31.29.29,0,0,1-.3-.21L28,9.44V8.82a4.29,4.29,0,0,1-1-.18,1.72,1.72,0,0,1-.62,1.25.29.29,0,0,0-.12.35l.52,1.25v.09a.31.31,0,0,1-.23.36.3.3,0,0,1-.36-.23h0L25.52,10a7.49,7.49,0,0,0,0-2.5V5a1.85,1.85,0,0,1,1.85-1.85h0a1.82,1.82,0,0,1,.65.12s.95.16,1.38.2a3.33,3.33,0,0,0,1.12-.22,2.76,2.76,0,0,1,.63-.1,2.2,2.2,0,0,1,1.05.33,3.93,3.93,0,0,0,1.12.29h1l1.25-.63V2.56l.63.62A1.82,1.82,0,0,1,38,2.56a1.15,1.15,0,0,0-1.25.62L38,4.43l.85.66H39a.32.32,0,0,1,.31.29Z" style="fill: #4e7c3b"/>
  <path d="M15.27,28.35v.34c0,1.25-1.25.64-1.25.64h-2.5a3.91,3.91,0,0,1-1.25,1.87,3.33,3.33,0,0,1-.52,1.13.29.29,0,0,0-.06.31l.57,1.94h0a.31.31,0,0,1-.31.31h0a.33.33,0,0,1-.31-.21L9,32.44v-.63H5l-.26.53a.26.26,0,0,0,0,.21l.6,2.08a.31.31,0,0,1-.31.31H5a.32.32,0,0,1-.3-.21L4,32.44v-.63a4.27,4.27,0,0,1-1-.17A1.72,1.72,0,0,1,2.34,33a.29.29,0,0,0-.11.35l.51,1.25v.09a.3.3,0,0,1-.23.35.29.29,0,0,1-.35-.21h0L1.53,33a8.06,8.06,0,0,0,0-2.5V28a1.85,1.85,0,0,1,1.85-1.85h0A2.25,2.25,0,0,1,4,26.3s.94.16,1.37.2a3.1,3.1,0,0,0,1.13-.21,2.59,2.59,0,0,1,.62-.1,2.07,2.07,0,0,1,1,.32,3.93,3.93,0,0,0,1.12.29h.95l1.25-.62v-.63l.63.63A1.83,1.83,0,0,1,14,25.55a1.15,1.15,0,0,0-1.25.63L14,27.43l.85.66H15a.29.29,0,0,1,.31.27h0Z" style="fill: #4e7c3b"/>
  <path d="M25.28,56.36v.34c0,1.25-1.25.63-1.25.63h-2.5a4,4,0,0,1-1.25,1.88,3.6,3.6,0,0,1-.53,1.12.31.31,0,0,0-.06.32l.57,1.93h0a.31.31,0,0,1-.3.32h0a.33.33,0,0,1-.31-.22L19,60.45v-.63H15l-.26.53a.26.26,0,0,0,0,.21l.6,2.07a.32.32,0,0,1-.24.37H15a.36.36,0,0,1-.3-.22L14,60.45v-.63a4.27,4.27,0,0,1-1-.17,1.69,1.69,0,0,1-.62,1.25.29.29,0,0,0-.11.35l.51,1.25v.08a.3.3,0,1,1-.59.13h0L11.51,61a7.49,7.49,0,0,0,0-2.5V56a1.85,1.85,0,0,1,1.87-1.82,1.81,1.81,0,0,1,.65.11s1,.17,1.37.2a3.33,3.33,0,0,0,1.13-.21,2.62,2.62,0,0,1,.62-.12,2.06,2.06,0,0,1,1.05.33,4,4,0,0,0,1.13.29h1l1.25-.63v-.62l.62.62a1.83,1.83,0,0,1,1.8-.6,1.12,1.12,0,0,0-1.25.62L24,55.42l.85.66H25a.32.32,0,0,1,.32.29Z" style="fill: #4e7c3b"/>
  <path d="M62.28,42.36v.34c0,1.25-1.25.63-1.25.63h-2.5a4,4,0,0,1-1.25,1.88,3.6,3.6,0,0,1-.53,1.12.36.36,0,0,0,0,.32l.58,1.93h0a.32.32,0,0,1-.32.32.33.33,0,0,1-.31-.22L56,46.45v-.63H52l-.26.53a.26.26,0,0,0,0,.21l.6,2.07a.32.32,0,0,1-.24.37H52a.36.36,0,0,1-.3-.22L51,46.45v-.63a4.27,4.27,0,0,1-1-.17,1.69,1.69,0,0,1-.62,1.25.29.29,0,0,0-.11.35l.51,1.25v.08a.3.3,0,0,1-.59.13L48.51,47a7.49,7.49,0,0,0,0-2.5V42a1.85,1.85,0,0,1,1.87-1.82,1.81,1.81,0,0,1,.65.11s.95.17,1.37.2a3.33,3.33,0,0,0,1.13-.21,2.62,2.62,0,0,1,.62-.12,2.06,2.06,0,0,1,1.05.33,4,4,0,0,0,1.13.29h1l1.25-.63v-.62l.62.62a1.83,1.83,0,0,1,1.8-.6,1.12,1.12,0,0,0-1.25.62L61,41.42l.85.66H62a.32.32,0,0,1,.32.29Z" style="fill: #4e7c3b"/>
  <path d="M53.28,20.35v.34c0,1.25-1.25.64-1.25.64h-2.5a4,4,0,0,1-1.25,1.87,3.65,3.65,0,0,1-.53,1.13.32.32,0,0,0,0,.3l.58,1.93v.08a.32.32,0,0,1-.25.36H48a.33.33,0,0,1-.31-.21L47,24.44v-.63H43l-.26.53a.26.26,0,0,0,0,.21l.6,2.08a.31.31,0,0,1-.31.31h0a.35.35,0,0,1-.3-.21L42,24.44v-.63a4.27,4.27,0,0,1-1-.17A1.72,1.72,0,0,1,40.34,25a.3.3,0,0,0-.11.35l.51,1.25v.09a.31.31,0,0,1-.24.36.3.3,0,0,1-.35-.24h0l-.64-1.68a7.49,7.49,0,0,0,0-2.5v-2.5a1.85,1.85,0,0,1,1.81-1.89h.06a2.06,2.06,0,0,1,.65.11s.95.18,1.37.2a3.1,3.1,0,0,0,1.13-.21,2.6,2.6,0,0,1,.62-.11,2.05,2.05,0,0,1,1.05.32,4,4,0,0,0,1.13.29h1l1.25-.63v-.62l.62.62a1.85,1.85,0,0,1,1.8-.67,1.15,1.15,0,0,0-1.25.62L52,19.41l.85.67H53a.32.32,0,0,1,.32.28Z" style="fill: #4e7c3b"/>
</svg>
