<?xml version="1.0" encoding="iso-8859-1"?>
<!-- Generator: Adobe Illustrator 24.3.0, SVG Export Plug-In . SVG Version: 6.00 Build 0)  -->
<svg version="1.1" id="Layer_2" xmlns="http://www.w3.org/2000/svg" xmlns:xlink="http://www.w3.org/1999/xlink" x="0px" y="0px"
	 viewBox="0 0 64 64" xml:space="preserve">
<g>
	<circle fill="#46673B" cx="6.5858" cy="8.1234" r="2.2534"/>
	<line fill="none" stroke="#46673B" stroke-miterlimit="10" x1="6.5292" y1="13.13" x2="6.5292" y2="9.83"/>
</g>
<g>
	<circle fill="#46673B" cx="25.5858" cy="5.1234" r="2.2534"/>
	<line fill="none" stroke="#46673B" stroke-miterlimit="10" x1="25.5292" y1="10.13" x2="25.5292" y2="6.83"/>
</g>
<g>
	<circle fill="#46673B" cx="5.5858" cy="26.1234" r="2.2534"/>
	<line fill="none" stroke="#46673B" stroke-miterlimit="10" x1="5.5292" y1="31.13" x2="5.5292" y2="27.83"/>
</g>
<g>
	<circle fill="#46673B" cx="17.5858" cy="36.1234" r="2.2534"/>
	<line fill="none" stroke="#46673B" stroke-miterlimit="10" x1="17.5292" y1="41.13" x2="17.5292" y2="37.83"/>
</g>
<g>
	<circle fill="#46673B" cx="24.5858" cy="53.1234" r="2.2534"/>
	<line fill="none" stroke="#46673B" stroke-miterlimit="10" x1="24.5292" y1="58.13" x2="24.5292" y2="54.83"/>
</g>
<g>
	<circle fill="#46673B" cx="37.5858" cy="43.1234" r="2.2534"/>
	<line fill="none" stroke="#46673B" stroke-miterlimit="10" x1="37.5292" y1="48.13" x2="37.5292" y2="44.83"/>
</g>
<g>
	<circle fill="#46673B" cx="50.5858" cy="37.1234" r="2.2534"/>
	<line fill="none" stroke="#46673B" stroke-miterlimit="10" x1="50.5292" y1="42.13" x2="50.5292" y2="38.83"/>
</g>
<g>
	<circle fill="#46673B" cx="58.5858" cy="4.1234" r="2.2534"/>
	<line fill="none" stroke="#46673B" stroke-miterlimit="10" x1="58.5292" y1="9.13" x2="58.5292" y2="5.83"/>
</g>
<g>
	<circle fill="#46673B" cx="37.5858" cy="26.1234" r="2.2534"/>
	<line fill="none" stroke="#46673B" stroke-miterlimit="10" x1="37.5292" y1="31.13" x2="37.5292" y2="27.83"/>
</g>
<g>
	<circle fill="#46673B" cx="38.5858" cy="11.1234" r="2.2534"/>
	<line fill="none" stroke="#46673B" stroke-miterlimit="10" x1="38.5292" y1="16.13" x2="38.5292" y2="12.83"/>
</g>
<g>
	<line fill="none" stroke="#46673B" stroke-miterlimit="10" x1="22.4483" y1="26.9348" x2="22.4483" y2="24.2948"/>
	<polygon fill="#46673B" stroke="#46673B" stroke-linecap="round" stroke-linejoin="round" stroke-miterlimit="10" points="
		20.3248,23.9648 22.4483,19.2469 24.3709,23.9648 	"/>
	<path fill="none" stroke="#46673B" stroke-miterlimit="10" d="M24.3709,23.9648"/>
</g>
<g>
	<line fill="none" stroke="#46673B" stroke-miterlimit="10" x1="5.4483" y1="49.9348" x2="5.4483" y2="47.2948"/>
	<polygon fill="#46673B" stroke="#4B673B" stroke-linecap="round" stroke-linejoin="round" stroke-miterlimit="10" points="
		3.3248,46.9648 5.4483,42.2469 7.3709,46.9648 	"/>
	<path fill="none" stroke="#46673B" stroke-miterlimit="10" d="M7.3709,46.9648"/>
</g>
<g>
	<line fill="none" stroke="#46673B" stroke-miterlimit="10" x1="11.4483" y1="61.9348" x2="11.4483" y2="59.2948"/>
	<polygon fill="#46673B" stroke="#46673B" stroke-linecap="round" stroke-linejoin="round" stroke-miterlimit="10" points="
		9.3248,58.9648 11.4483,54.2469 13.3709,58.9648 	"/>
	<path fill="none" stroke="#46673B" stroke-miterlimit="10" d="M13.3709,58.9648"/>
</g>
<g>
	<line fill="none" stroke="#46673B" stroke-miterlimit="10" x1="41.4483" y1="61.9348" x2="41.4483" y2="59.2948"/>
	<polygon fill="#46673B" stroke="#46673B" stroke-linecap="round" stroke-linejoin="round" stroke-miterlimit="10" points="
		39.3248,58.9648 41.4483,54.2469 43.3709,58.9648 	"/>
	<path fill="none" stroke="#46673B" stroke-miterlimit="10" d="M43.3709,58.9648"/>
</g>
<g>
	<line fill="none" stroke="#46673B" stroke-miterlimit="10" x1="55.4483" y1="57.9348" x2="55.4483" y2="55.2948"/>
	<polygon fill="#46673B" stroke="#46673B" stroke-linecap="round" stroke-linejoin="round" stroke-miterlimit="10" points="
		53.3248,54.9648 55.4483,50.2469 57.3709,54.9648 	"/>
	<path fill="none" stroke="#46673B" stroke-miterlimit="10" d="M57.3709,54.9648"/>
</g>
<g>
	<line fill="none" stroke="#46673B" stroke-miterlimit="10" x1="56.4483" y1="27.9348" x2="56.4483" y2="25.2948"/>
	<polygon fill="#46673B" stroke="#46673B" stroke-linecap="round" stroke-linejoin="round" stroke-miterlimit="10" points="
		54.3248,24.9648 56.4483,20.2469 58.3709,24.9648 	"/>
	<path fill="none" stroke="#46673B" stroke-miterlimit="10" d="M58.3709,24.9648"/>
</g>
</svg>
