<?xml version="1.0" encoding="iso-8859-1"?>
<!-- Generator: Adobe Illustrator 24.3.0, SVG Export Plug-In . SVG Version: 6.00 Build 0)  -->
<svg version="1.1" id="Layer_3" xmlns="http://www.w3.org/2000/svg" xmlns:xlink="http://www.w3.org/1999/xlink" x="0px" y="0px"
	 viewBox="0 0 64 64" xml:space="preserve">
<line fill="none" stroke="#46673B" stroke-miterlimit="10" x1="22.4483" y1="26.9348" x2="22.4483" y2="24.2948"/>
<polygon fill="#46673B" stroke="#46673B" stroke-linecap="round" stroke-linejoin="round" stroke-miterlimit="10" points="
	20.3248,23.9648 22.4483,19.2469 24.3709,23.9648 "/>
<path fill="none" stroke="#46673B" stroke-miterlimit="10" d="M24.3709,23.9648"/>
<line fill="none" stroke="#46673B" stroke-miterlimit="10" x1="38.4483" y1="15.9348" x2="38.4483" y2="13.2948"/>
<polygon fill="#46673B" stroke="#46673B" stroke-linecap="round" stroke-linejoin="round" stroke-miterlimit="10" points="
	36.3248,12.9648 38.4483,8.2469 40.3709,12.9648 "/>
<path fill="none" stroke="#46673B" stroke-miterlimit="10" d="M40.3709,12.9648"/>
<line fill="none" stroke="#46673B" stroke-miterlimit="10" x1="58.4483" y1="8.9348" x2="58.4483" y2="6.2948"/>
<polygon fill="#46673B" stroke="#46673B" stroke-linecap="round" stroke-linejoin="round" stroke-miterlimit="10" points="
	56.3248,5.9648 58.4483,1.2469 60.3709,5.9648 "/>
<path fill="none" stroke="#46673B" stroke-miterlimit="10" d="M60.3709,5.9648"/>
<line fill="none" stroke="#46673B" stroke-miterlimit="10" x1="56.4483" y1="27.9348" x2="56.4483" y2="25.2948"/>
<polygon fill="#46673B" stroke="#46673B" stroke-linecap="round" stroke-linejoin="round" stroke-miterlimit="10" points="
	54.3248,24.9648 56.4483,20.2469 58.3709,24.9648 "/>
<path fill="none" stroke="#46673B" stroke-miterlimit="10" d="M58.3709,24.9648"/>
<line fill="none" stroke="#46673B" stroke-miterlimit="10" x1="37.4483" y1="30.9348" x2="37.4483" y2="28.2948"/>
<polygon fill="#46673B" stroke="#46673B" stroke-linecap="round" stroke-linejoin="round" stroke-miterlimit="10" points="
	35.3248,27.9648 37.4483,23.2469 39.3709,27.9648 "/>
<path fill="none" stroke="#46673B" stroke-miterlimit="10" d="M39.3709,27.9648"/>
<line fill="none" stroke="#46673B" stroke-miterlimit="10" x1="50.4483" y1="41.9348" x2="50.4483" y2="39.2948"/>
<polygon fill="#46673B" stroke="#46673B" stroke-linecap="round" stroke-linejoin="round" stroke-miterlimit="10" points="
	48.3248,38.9648 50.4483,34.2469 52.3709,38.9648 "/>
<path fill="none" stroke="#46673B" stroke-miterlimit="10" d="M52.3709,38.9648"/>
<line fill="none" stroke="#46673B" stroke-miterlimit="10" x1="37.4483" y1="47.9348" x2="37.4483" y2="45.2948"/>
<polygon fill="#46673B" stroke="#46673B" stroke-linecap="round" stroke-linejoin="round" stroke-miterlimit="10" points="
	35.3248,44.9648 37.4483,40.2469 39.3709,44.9648 "/>
<path fill="none" stroke="#46673B" stroke-miterlimit="10" d="M39.3709,44.9648"/>
<line fill="none" stroke="#46673B" stroke-miterlimit="10" x1="55.4483" y1="57.9348" x2="55.4483" y2="55.2948"/>
<polygon fill="#46673B" stroke="#46673B" stroke-linecap="round" stroke-linejoin="round" stroke-miterlimit="10" points="
	53.3248,54.9648 55.4483,50.2469 57.3709,54.9648 "/>
<path fill="none" stroke="#46673B" stroke-miterlimit="10" d="M57.3709,54.9648"/>
<line fill="none" stroke="#46673B" stroke-miterlimit="10" x1="41.4483" y1="61.9348" x2="41.4483" y2="59.2948"/>
<polygon fill="#46673B" stroke="#46673B" stroke-linecap="round" stroke-linejoin="round" stroke-miterlimit="10" points="
	39.3248,58.9648 41.4483,54.2469 43.3709,58.9648 "/>
<path fill="none" stroke="#46673B" stroke-miterlimit="10" d="M43.3709,58.9648"/>
<line fill="none" stroke="#46673B" stroke-miterlimit="10" x1="24.4483" y1="57.9348" x2="24.4483" y2="55.2948"/>
<polygon fill="#46673B" stroke="#46673B" stroke-linecap="round" stroke-linejoin="round" stroke-miterlimit="10" points="
	22.3248,54.9648 24.4483,50.2469 26.3709,54.9648 "/>
<path fill="none" stroke="#46673B" stroke-miterlimit="10" d="M26.3709,54.9648"/>
<line fill="none" stroke="#46673B" stroke-miterlimit="10" x1="11.4483" y1="61.9348" x2="11.4483" y2="59.2948"/>
<polygon fill="#46673B" stroke="#46673B" stroke-linecap="round" stroke-linejoin="round" stroke-miterlimit="10" points="
	9.3248,58.9648 11.4483,54.2469 13.3709,58.9648 "/>
<path fill="none" stroke="#46673B" stroke-miterlimit="10" d="M13.3709,58.9648"/>
<line fill="none" stroke="#46673B" stroke-miterlimit="10" x1="5.4483" y1="49.9348" x2="5.4483" y2="47.2948"/>
<polygon fill="#46673B" stroke="#46673B" stroke-linecap="round" stroke-linejoin="round" stroke-miterlimit="10" points="
	3.3248,46.9648 5.4483,42.2469 7.3709,46.9648 "/>
<path fill="none" stroke="#46673B" stroke-miterlimit="10" d="M7.3709,46.9648"/>
<line fill="none" stroke="#46673B" stroke-miterlimit="10" x1="5.4483" y1="30.9348" x2="5.4483" y2="28.2948"/>
<polygon fill="#46673B" stroke="#46673B" stroke-linecap="round" stroke-linejoin="round" stroke-miterlimit="10" points="
	3.3248,27.9648 5.4483,23.2469 7.3709,27.9648 "/>
<path fill="none" stroke="#46673B" stroke-miterlimit="10" d="M7.3709,27.9648"/>
<line fill="none" stroke="#46673B" stroke-miterlimit="10" x1="17.4483" y1="40.9348" x2="17.4483" y2="38.2948"/>
<polygon fill="#46673B" stroke="#46673B" stroke-linecap="round" stroke-linejoin="round" stroke-miterlimit="10" points="
	15.3248,37.9648 17.4483,33.2469 19.3709,37.9648 "/>
<path fill="none" stroke="#46673B" stroke-miterlimit="10" d="M19.3709,37.9648"/>
<line fill="none" stroke="#46673B" stroke-miterlimit="10" x1="25.4483" y1="9.9348" x2="25.4483" y2="7.2948"/>
<polygon fill="#46673B" stroke="#46673B" stroke-linecap="round" stroke-linejoin="round" stroke-miterlimit="10" points="
	23.3248,6.9648 25.4483,2.2469 27.3709,6.9648 "/>
<path fill="none" stroke="#46673B" stroke-miterlimit="10" d="M27.3709,6.9648"/>
<line fill="none" stroke="#46673B" stroke-miterlimit="10" x1="6.4483" y1="12.9348" x2="6.4483" y2="10.2948"/>
<polygon fill="#46673B" stroke="#46673B" stroke-linecap="round" stroke-linejoin="round" stroke-miterlimit="10" points="
	4.3248,9.9648 6.4483,5.2469 8.3709,9.9648 "/>
<path fill="none" stroke="#46673B" stroke-miterlimit="10" d="M8.3709,9.9648"/>
</svg>
