<?xml version="1.0" encoding="iso-8859-1"?>
<!-- Generator: Adobe Illustrator 24.3.0, SVG Export Plug-In . SVG Version: 6.00 Build 0)  -->
<svg version="1.1" id="Layer_3" xmlns="http://www.w3.org/2000/svg" xmlns:xlink="http://www.w3.org/1999/xlink" x="0px" y="0px"
	 viewBox="0 0 64 64" xml:space="preserve">
<circle fill="#46673B" cx="37.5858" cy="26.1234" r="2.2534"/>
<line fill="none" stroke="#46673B" stroke-miterlimit="10" x1="37.5292" y1="31.13" x2="37.5292" y2="27.83"/>
<circle fill="#46673B" cx="6.5858" cy="8.1234" r="2.2534"/>
<line fill="none" stroke="#46673B" stroke-miterlimit="10" x1="6.5292" y1="13.13" x2="6.5292" y2="9.83"/>
<circle fill="#46673B" cx="25.5858" cy="5.1234" r="2.2534"/>
<line fill="none" stroke="#46673B" stroke-miterlimit="10" x1="25.5292" y1="10.13" x2="25.5292" y2="6.83"/>
<circle fill="#46673B" cx="5.5858" cy="26.1234" r="2.2534"/>
<line fill="none" stroke="#46673B" stroke-miterlimit="10" x1="5.5292" y1="31.13" x2="5.5292" y2="27.83"/>
<circle fill="#46673B" cx="17.5858" cy="36.1234" r="2.2534"/>
<line fill="none" stroke="#46673B" stroke-miterlimit="10" x1="17.5292" y1="41.13" x2="17.5292" y2="37.83"/>
<circle fill="#46673B" cx="24.5858" cy="53.1234" r="2.2534"/>
<line fill="none" stroke="#46673B" stroke-miterlimit="10" x1="24.5292" y1="58.13" x2="24.5292" y2="54.83"/>
<circle fill="#46673B" cx="37.5858" cy="43.1234" r="2.2534"/>
<line fill="none" stroke="#46673B" stroke-miterlimit="10" x1="37.5292" y1="48.13" x2="37.5292" y2="44.83"/>
<circle fill="#46673B" cx="50.5858" cy="37.1234" r="2.2534"/>
<line fill="none" stroke="#46673B" stroke-miterlimit="10" x1="50.5292" y1="42.13" x2="50.5292" y2="38.83"/>
<circle fill="#46673B" cx="58.5858" cy="4.1234" r="2.2534"/>
<line fill="none" stroke="#46673B" stroke-miterlimit="10" x1="58.5292" y1="9.13" x2="58.5292" y2="5.83"/>
<circle fill="#46673B" cx="38.5858" cy="11.1234" r="2.2534"/>
<line fill="none" stroke="#46673B" stroke-miterlimit="10" x1="38.5292" y1="16.13" x2="38.5292" y2="12.83"/>
<circle fill="#46673B" cx="22.5858" cy="22.1234" r="2.2534"/>
<line fill="none" stroke="#46673B" stroke-miterlimit="10" x1="22.5292" y1="27.13" x2="22.5292" y2="23.83"/>
<circle fill="#46673B" cx="56.5858" cy="23.1234" r="2.2534"/>
<line fill="none" stroke="#46673B" stroke-miterlimit="10" x1="56.5292" y1="28.13" x2="56.5292" y2="24.83"/>
<circle fill="#46673B" cx="55.5858" cy="53.1234" r="2.2534"/>
<line fill="none" stroke="#46673B" stroke-miterlimit="10" x1="55.5292" y1="58.13" x2="55.5292" y2="54.83"/>
<circle fill="#46673B" cx="41.5858" cy="57.1234" r="2.2534"/>
<line fill="none" stroke="#46673B" stroke-miterlimit="10" x1="41.5292" y1="62.13" x2="41.5292" y2="58.83"/>
<circle fill="#46673B" cx="11.5858" cy="57.1234" r="2.2534"/>
<line fill="none" stroke="#46673B" stroke-miterlimit="10" x1="11.5292" y1="62.13" x2="11.5292" y2="58.83"/>
<circle fill="#46673B" cx="5.5858" cy="45.1234" r="2.2534"/>
<line fill="none" stroke="#46673B" stroke-miterlimit="10" x1="5.5292" y1="50.13" x2="5.5292" y2="46.83"/>
</svg>
