<svg id="Layer_1" data-name="Layer 1" xmlns="http://www.w3.org/2000/svg" width="32" height="32" viewBox="0 0 32 32">
  <line x1="7.75" y1="8.52" x2="3.25" y2="4.02" style="fill: none;stroke: #4a4a49;stroke-linecap: round;stroke-miterlimit: 10;stroke-width: 0.75px"/>
  <line x1="1.75" y1="8.52" x2="6.25" y2="4.02" style="fill: none;stroke: #4a4a49;stroke-linecap: round;stroke-miterlimit: 10;stroke-width: 0.75px"/>
  <rect x="1.09" y="2.91" width="3" height="1" transform="translate(-1.66 2.83) rotate(-45)" style="fill: #4a4a49;stroke: #4a4a49;stroke-linecap: round;stroke-linejoin: round;stroke-width: 0.7499927800532014px"/>
  <polygon points="8 5.14 5.58 2.72 6.26 2.04 7 2.78 8 5.14" style="fill: #4a4a49;stroke: #4a4a49;stroke-linecap: round;stroke-linejoin: round;stroke-width: 0.75px"/>
  <line x1="19.58" y1="31" x2="15.08" y2="26.5" style="fill: none;stroke: #4a4a49;stroke-linecap: round;stroke-miterlimit: 10;stroke-width: 0.75px"/>
  <line x1="13.58" y1="31" x2="18.08" y2="26.5" style="fill: none;stroke: #4a4a49;stroke-linecap: round;stroke-miterlimit: 10;stroke-width: 0.75px"/>
  <rect x="12.91" y="25.39" width="3" height="1" transform="translate(-14.09 17.78) rotate(-45)" style="fill: #4a4a49;stroke: #4a4a49;stroke-linecap: round;stroke-linejoin: round;stroke-width: 0.7499927800532014px"/>
  <polygon points="19.83 27.63 17.4 25.2 18.09 24.52 18.83 25.26 19.83 27.63" style="fill: #4a4a49;stroke: #4a4a49;stroke-linecap: round;stroke-linejoin: round;stroke-width: 0.75px"/>
  <line x1="29.75" y1="19" x2="25.25" y2="14.5" style="fill: none;stroke: #4a4a49;stroke-linecap: round;stroke-miterlimit: 10;stroke-width: 0.75px"/>
  <line x1="23.75" y1="19" x2="28.25" y2="14.5" style="fill: none;stroke: #4a4a49;stroke-linecap: round;stroke-miterlimit: 10;stroke-width: 0.75px"/>
  <rect x="23.09" y="13.39" width="3" height="1" transform="translate(-2.62 21.45) rotate(-45)" style="fill: #4a4a49;stroke: #4a4a49;stroke-linecap: round;stroke-linejoin: round;stroke-width: 0.7499927800532014px"/>
  <polygon points="30 15.63 27.58 13.2 28.26 12.52 29 13.26 30 15.63" style="fill: #4a4a49;stroke: #4a4a49;stroke-linecap: round;stroke-linejoin: round;stroke-width: 0.75px"/>
</svg>
