<?xml version="1.0" encoding="iso-8859-1"?>
<!-- Generator: Adobe Illustrator 24.3.0, SVG Export Plug-In . SVG Version: 6.00 Build 0)  -->
<svg version="1.1" id="Layer_1" xmlns="http://www.w3.org/2000/svg" xmlns:xlink="http://www.w3.org/1999/xlink" x="0px" y="0px"
	 viewBox="0 0 48 48" xml:space="preserve">
<g>
	<path fill="none" stroke="#707070" stroke-width="0.3164" stroke-miterlimit="10" d="M1.117,2.4147
		c-0.046-0.5875-0.0896-1.3472,0.3216-1.3794S2.1191,1.745,2.1651,2.3326c0.046,0.5875-0.1195,1.1691-0.5308,1.2014
		C1.2231,3.5661,1.163,3.0022,1.117,2.4147z"/>
</g>
<g>
	<path fill="none" stroke="#707070" stroke-width="0.3081" stroke-miterlimit="10" d="M8.83,3.0036
		C8.6427,2.4612,8.9692,2.0658,9.3489,1.9347c0.3797-0.1311,0.5617,0.0887,0.749,0.6311s0.3093,1.2034-0.0703,1.3344
		C9.6479,4.0313,9.0172,3.5459,8.83,3.0036z"/>
</g>
<g>
	<path fill="none" stroke="#707070" stroke-width="0.3885" stroke-miterlimit="10" d="M13.5825,2.5184
		c0.4624-0.5565,0.9564-0.8339,1.346-0.5103c0.3896,0.3237,0.2634,0.9066-0.199,1.4632s-1.1874,0.9981-1.577,0.6744
		C12.7629,3.8221,13.1201,3.0749,13.5825,2.5184z"/>
</g>
<g>
	<path fill="none" stroke="#707070" stroke-width="0.2941" stroke-miterlimit="10" d="M21.2288,4.0585
		c-0.546-0.0433-0.9781-0.6806-0.9477-1.0628s0.5436-0.7681,1.0896-0.7248s0.9418,0.5014,0.9115,0.8836
		S21.7749,4.1018,21.2288,4.0585z"/>
</g>
<g>
	<path fill="none" stroke="#707070" stroke-width="0.3229" stroke-miterlimit="10" d="M26.4085,2.1814
		c0.5154-0.31,0.8193-0.3241,1.0363,0.0367c0.217,0.3608,0.0361,0.5795-0.4793,0.8895c-0.5154,0.31-1.1815,0.6006-1.3985,0.2398
		C25.35,2.9866,25.8931,2.4914,26.4085,2.1814z"/>
</g>
<g>
	<path fill="none" stroke="#707070" stroke-width="0.3014" stroke-miterlimit="10" d="M33.6414,3.5344
		c-0.5611-0.0155-1.0688-0.4963-1.0579-0.8891s0.5337-0.4634,1.0948-0.4479c0.5611,0.0155,1.0435,0.1139,1.0327,0.5067
		C34.7002,3.0969,34.2025,3.5499,33.6414,3.5344z"/>
</g>
<g>
	<path fill="none" stroke="#707070" stroke-width="0.2974" stroke-miterlimit="10" d="M37.9054,5.4537
		c-0.5412-0.1179-0.9029-0.5595-0.8203-0.9384c0.0826-0.3788,0.5484-0.4149,1.0896-0.297s1.0036,0.3563,0.921,0.7352
		C39.0131,5.3323,38.4466,5.5716,37.9054,5.4537z"/>
</g>
<g>
	<path fill="none" stroke="#707070" stroke-width="0.3623" stroke-miterlimit="10" d="M44.2113,2.6288
		c0.391-0.5498,1.2881-0.8654,1.673-0.5917s0.4623,1.2823,0.0713,1.8321c-0.391,0.5498-1.3723,0.8123-1.7571,0.5386
		S43.8203,3.1786,44.2113,2.6288z"/>
</g>
<g>
	<path fill="none" stroke="#707070" stroke-width="0.4109" stroke-miterlimit="10" d="M1.06,8.1602
		c0.3062-0.7014,0.74-1.5625,1.231-1.3482s0.1919,1.1343-0.1143,1.8357S1.4438,10.0913,0.9529,9.877S0.7538,8.8616,1.06,8.1602z"/>
</g>
<g>
	<path fill="none" stroke="#707070" stroke-width="0.4095" stroke-miterlimit="10" d="M8.9147,9.6789
		c-0.5195-0.5584-0.6773-1.508-0.2865-1.8716c0.3909-0.3636,0.9982,0.1677,1.5177,0.7261c0.5195,0.5584,0.7732,0.9526,0.3823,1.3162
		C10.1374,10.2132,9.4341,10.2373,8.9147,9.6789z"/>
</g>
<g>
	<path fill="none" stroke="#707070" stroke-width="0.3481" stroke-miterlimit="10" d="M13.256,8.5149
		c0.6433-0.0809,1.0376,0.2446,1.0942,0.6949s-0.277,0.6068-0.9203,0.6877c-0.6433,0.0809-0.94,0.0037-0.9966-0.4466
		C12.3767,9.0006,12.6128,8.5958,13.256,8.5149z"/>
</g>
<g>
	<path fill="none" stroke="#707070" stroke-width="0.2937" stroke-miterlimit="10" d="M21.1815,10.4758
		c0.1659-0.5212,0.3543-1.0278,0.7191-0.9117c0.3648,0.1161,0.3902,0.6907,0.2244,1.2119c-0.1659,0.5212-0.5004,0.918-0.8652,0.8019
		C20.8949,11.4619,21.0157,10.997,21.1815,10.4758z"/>
</g>
<g>
	<path fill="none" stroke="#707070" stroke-width="0.3769" stroke-miterlimit="10" d="M24.9255,9.9629
		c-0.5396-0.4489-0.6286-0.8298-0.3144-1.2075s0.7835-0.4538,1.323-0.0049c0.5396,0.4489,1.0043,1.3021,0.69,1.6797
		C26.3099,10.8081,25.465,10.4118,24.9255,9.9629z"/>
</g>
<g>
	<path fill="none" stroke="#707070" stroke-width="0.3807" stroke-miterlimit="10" d="M32.9842,8.5603
		c-0.3185-0.6334-0.5041-1.4144-0.0607-1.6374c0.4434-0.2229,1.1045,0.319,1.423,0.9524s0.1397,1.0505-0.3037,1.2735
		C33.5994,9.3717,33.3027,9.1936,32.9842,8.5603z"/>
</g>
<g>
	<path fill="none" stroke="#707070" stroke-width="0.4162" stroke-miterlimit="10" d="M39.9133,9.099
		c0.7287-0.2646,1.5402-0.2035,1.7254,0.3065c0.1852,0.5101-0.2336,1.5306-0.9622,1.7952c-0.7287,0.2646-1.3316-0.385-1.5168-0.895
		S39.1846,9.3636,39.9133,9.099z"/>
</g>
<g>
	<path fill="none" stroke="#707070" stroke-width="0.3452" stroke-miterlimit="10" d="M43.5598,11.637
		c-0.6273-0.1405-0.921-0.6964-0.8226-1.1355c0.0983-0.4391,0.5696-0.6763,1.1969-0.5358c0.6273,0.1405,0.7629,0.5136,0.6646,0.9527
		C44.5004,11.3575,44.1871,11.7775,43.5598,11.637z"/>
</g>
<g>
	<path fill="none" stroke="#707070" stroke-width="0.3127" stroke-miterlimit="10" d="M0.4116,16.5692
		c-0.0618-0.579,0.5406-0.8331,0.9459-0.8764c0.4053-0.0433,0.763,0.1083,0.8248,0.6873c0.0618,0.579-0.2516,0.842-0.6569,0.8853
		C1.1201,17.3087,0.4734,17.1481,0.4116,16.5692z"/>
</g>
<g>
	<path fill="none" stroke="#707070" stroke-width="0.3017" stroke-miterlimit="10" d="M7.7762,14.0783
		c-0.0338-0.5609,0.534-1.2727,0.9266-1.2964c0.3926-0.0237,0.5392,0.645,0.573,1.2059c0.0338,0.5609-0.051,0.9148-0.4436,0.9385
		C8.4396,14.95,7.8101,14.6391,7.7762,14.0783z"/>
</g>
<g>
	<path fill="none" stroke="#707070" stroke-width="0.3197" stroke-miterlimit="10" d="M13.7332,14.4776
		c-0.321-0.5014-0.5512-0.9945-0.2002-1.2192c0.351-0.2247,0.83,0.1091,1.151,0.6105c0.321,0.5014,0.2795,0.851-0.0715,1.0757
		C14.2615,15.1693,14.0542,14.9791,13.7332,14.4776z"/>
</g>
<g>
	<path fill="none" stroke="#707070" stroke-width="0.3825" stroke-miterlimit="10" d="M19.1712,15.2464
		c0.6728-0.234,1.4216-0.0773,1.5854,0.3936c0.1638,0.471-0.2545,1.2643-0.9274,1.4983c-0.6728,0.234-1.7191-0.05-1.8829-0.5209
		C17.7825,16.1465,18.4984,15.4804,19.1712,15.2464z"/>
</g>
<g>
	<path fill="none" stroke="#707070" stroke-width="0.4016" stroke-miterlimit="10" d="M25.3499,16.0175
		c0.3265-0.6728,1.2736-0.8564,1.7446-0.6278c0.471,0.2286,0.3238,0.8003-0.0028,1.4731s-0.7427,1.262-1.2136,1.0334
		S25.0234,16.6904,25.3499,16.0175z"/>
</g>
<g>
	<path fill="none" stroke="#707070" stroke-width="0.3939" stroke-miterlimit="10" d="M30.9624,14.7973
		c0.4803-0.5546,1.0078-0.4552,1.396-0.119c0.3882,0.3362,0.5765,0.8567,0.0962,1.4113c-0.4803,0.5546-1.1346,0.5722-1.5228,0.236
		C30.5435,15.9894,30.4821,15.3519,30.9624,14.7973z"/>
</g>
<g>
	<path fill="none" stroke="#707070" stroke-width="0.3679" stroke-miterlimit="10" d="M37.9516,16.1122
		c0.1249-0.6737,0.5656-1.4546,1.0371-1.3671s0.3385,0.9254,0.2135,1.599c-0.1249,0.6737-0.2485,1.22-0.7201,1.1325
		S37.8266,16.7858,37.9516,16.1122z"/>
</g>
<g>
	<path fill="none" stroke="#707070" stroke-width="0.3041" stroke-miterlimit="10" d="M43.9211,15.7053
		c-0.4937-0.2775-0.7506-0.7969-0.5563-1.1425c0.1943-0.3456,0.9029-0.63,1.3966-0.3525c0.4937,0.2775,0.7397,1.0984,0.5454,1.4441
		C45.1126,16,44.4149,15.9829,43.9211,15.7053z"/>
</g>
<g>
	<path fill="none" stroke="#707070" stroke-width="0.3379" stroke-miterlimit="10" d="M2.1471,22.1044
		c-0.3469-0.5251-0.4952-0.9558-0.1276-1.1986c0.3676-0.2428,1.1097-0.2044,1.4566,0.3208s0.2261,1.4274-0.1415,1.6702
		C2.967,23.1395,2.494,22.6295,2.1471,22.1044z"/>
</g>
<g>
	<path fill="none" stroke="#707070" stroke-width="0.3074" stroke-miterlimit="10" d="M7.2238,22.1511
		c0.5549-0.1405,0.7845-0.1614,0.8828,0.2271c0.0983,0.3884-0.1003,0.5316-0.6552,0.6721
		c-0.5549,0.1405-0.9143,0.1385-1.0126-0.2499C6.3405,22.412,6.6689,22.2916,7.2238,22.1511z"/>
</g>
<g>
	<path fill="none" stroke="#707070" stroke-width="0.4048" stroke-miterlimit="10" d="M12.7527,21.5189
		c0.3166-0.6841,0.7463-0.7647,1.2252-0.5431c0.4789,0.2216,0.7065,0.6064,0.3899,1.2905
		c-0.3166,0.6841-0.8316,0.9204-1.3105,0.6987C12.5785,22.7435,12.4361,22.2031,12.7527,21.5189z"/>
</g>
<g>
	<path fill="none" stroke="#707070" stroke-width="0.3391" stroke-miterlimit="10" d="M19.3715,20.9632
		c-0.5504-0.3096-0.7826-0.7801-0.5659-1.1654c0.2168-0.3853,0.7417-0.4351,1.2921-0.1255c0.5504,0.3096,0.6308,0.7001,0.414,1.0854
		C20.295,21.143,19.9219,21.2729,19.3715,20.9632z"/>
</g>
<g>
	<path fill="none" stroke="#707070" stroke-width="0.378" stroke-miterlimit="10" d="M25.8481,22.3556
		c-0.575-0.4062-0.3972-1.0624-0.1129-1.4649c0.2844-0.4025,0.8186-0.7542,1.3936-0.348c0.575,0.4062,0.6264,1.1716,0.342,1.5742
		C27.1865,22.5193,26.4231,22.7618,25.8481,22.3556z"/>
</g>
<g>
	<path fill="none" stroke="#707070" stroke-width="0.2971" stroke-miterlimit="10" d="M34.0434,21.8801
		c0.0343-0.5523,0.2186-0.9976,0.6052-0.9735c0.3866,0.024,0.6214,0.4953,0.587,1.0476c-0.0343,0.5523-0.3273,1.0186-0.714,0.9945
		C34.135,22.9247,34.0091,22.4324,34.0434,21.8801z"/>
</g>
<g>
	<path fill="none" stroke="#707070" stroke-width="0.3578" stroke-miterlimit="10" d="M36.7684,22.3336
		c-0.559-0.3628-0.4364-1.0875-0.1825-1.4788c0.254-0.3913,0.8431-0.7634,1.4021-0.4006c0.559,0.3628,0.4028,1.0158,0.1488,1.4071
		C37.8829,22.2526,37.3274,22.6964,36.7684,22.3336z"/>
</g>
<g>
	<path fill="none" stroke="#707070" stroke-width="0.3412" stroke-miterlimit="10" d="M45.1224,22.1316
		c-0.4595-0.4389-0.4191-1.1866-0.1119-1.5082c0.3073-0.3216,0.895-0.2316,1.3545,0.2074c0.4595,0.4389,0.4677,0.9182,0.1605,1.2398
		C46.2182,22.3922,45.5819,22.5705,45.1224,22.1316z"/>
</g>
<g>
	<path fill="none" stroke="#707070" stroke-width="0.3834" stroke-miterlimit="10" d="M3.8209,27.9395
		c-0.7083-0.0899-1.2909-0.4792-1.228-0.975s0.7202-0.6947,1.4285-0.6048s1.4295,0.4638,1.3666,0.9596
		S4.5292,28.0294,3.8209,27.9395z"/>
</g>
<g>
	<path fill="none" stroke="#707070" stroke-width="0.3923" stroke-miterlimit="10" d="M7.2262,28.3387
		c-0.0404-0.7294,0.1721-1.065,0.6827-1.0933c0.5106-0.0282,1.2625,0.254,1.3029,0.9834c0.0404,0.7294-0.6443,1.6642-1.1548,1.6924
		S7.2665,29.0682,7.2262,28.3387z"/>
</g>
<g>
	<path fill="none" stroke="#707070" stroke-width="0.4108" stroke-miterlimit="10" d="M14.8426,28.0503
		c-0.4678-0.6054-0.4352-1.6186-0.0114-1.946c0.4238-0.3274,1.5377-0.2001,2.0054,0.4053c0.4678,0.6054,0.3443,1.7599-0.0794,2.0874
		S15.3104,28.6556,14.8426,28.0503z"/>
</g>
<g>
	<path fill="none" stroke="#707070" stroke-width="0.338" stroke-miterlimit="10" d="M21.6786,25.6572
		c0.354-0.5206,0.9752-0.3511,1.3396-0.1034c0.3645,0.2478,0.7644,0.7725,0.4104,1.2931c-0.354,0.5206-1.3218,0.8313-1.6863,0.5836
		C21.3779,27.1828,21.3246,26.1779,21.6786,25.6572z"/>
</g>
<g>
	<path fill="none" stroke="#707070" stroke-width="0.3696" stroke-miterlimit="10" d="M25.4169,28.6809
		c0.0159-0.6881,0.1845-0.9863,0.6662-0.9752c0.4817,0.0112,0.5591,0.3151,0.5432,1.0032c-0.0159,0.6881-0.1141,1.2792-0.5958,1.268
		C25.5489,29.9657,25.401,29.369,25.4169,28.6809z"/>
</g>
<g>
	<path fill="none" stroke="#707070" stroke-width="0.3169" stroke-miterlimit="10" d="M33.6299,28.2966
		c-0.5299-0.2599-0.6671-0.8817-0.4851-1.2526c0.1819-0.3709,0.5737-0.2683,1.1036-0.0084
		c0.5299,0.2599,1.0443,0.6017,0.8624,0.9726C34.9288,28.3792,34.1598,28.5565,33.6299,28.2966z"/>
</g>
<g>
	<path fill="none" stroke="#707070" stroke-width="0.2974" stroke-miterlimit="10" d="M36.8485,27.582
		c-0.1676-0.528-0.2414-1.1113,0.1282-1.2286c0.3696-0.1173,0.5978,0.417,0.7654,0.945c0.1676,0.528,0.3169,1.1833-0.0527,1.3007
		C37.3198,28.7163,37.0161,28.11,36.8485,27.582z"/>
</g>
<g>
	<path fill="none" stroke="#707070" stroke-width="0.3271" stroke-miterlimit="10" d="M45.3669,27.0473
		c0.2025-0.5745,0.5525-0.733,0.9546-0.5913c0.4021,0.1417,0.5512,0.4762,0.3487,1.0507s-0.6729,1.1517-1.075,1.0099
		C45.193,28.3749,45.1644,27.6218,45.3669,27.0473z"/>
</g>
<g>
	<path fill="none" stroke="#707070" stroke-width="0.3025" stroke-miterlimit="10" d="M4.1524,33.1634
		c-0.5589-0.0712-1.1121-0.3747-1.0622-0.766c0.0499-0.3912,0.7069-0.9028,1.2658-0.8316s1.0686,0.7315,1.0187,1.1227
		S4.7113,33.2347,4.1524,33.1634z"/>
</g>
<g>
	<path fill="none" stroke="#707070" stroke-width="0.4163" stroke-miterlimit="10" d="M8.3892,34.987
		c-0.7402-0.2307-1.3958-0.7487-1.2344-1.2668c0.1615-0.5181,1.1379-1.0293,1.878-0.7986c0.7402,0.2307,1.4717,1.2741,1.3102,1.7922
		C10.1817,35.232,9.1294,35.2177,8.3892,34.987z"/>
</g>
<g>
	<path fill="none" stroke="#707070" stroke-width="0.353" stroke-miterlimit="10" d="M14.8977,33.2682
		c-0.5543-0.3535-0.8352-0.6219-0.5877-1.0099c0.2475-0.388,0.7468-0.462,1.301-0.1085c0.5543,0.3535,0.973,1.0131,0.7255,1.4011
		C16.0891,33.9388,15.452,33.6217,14.8977,33.2682z"/>
</g>
<g>
	<path fill="none" stroke="#707070" stroke-width="0.3226" stroke-miterlimit="10" d="M19.4862,32.294
		c0.4729-0.3706,1.0302-0.5381,1.2897-0.2071c0.2594,0.331,0.0263,0.9122-0.4466,1.2828c-0.4729,0.3706-1.0955,0.4601-1.355,0.1291
		C18.7148,33.1677,19.0133,32.6646,19.4862,32.294z"/>
</g>
<g>
	<path fill="none" stroke="#707070" stroke-width="0.3964" stroke-miterlimit="10" d="M24.9573,33.0319
		c0.5061-0.5374,1.5764-0.6407,1.9525-0.2864c0.3762,0.3543,0.1514,1.2538-0.3548,1.7912c-0.5061,0.5374-1.1378,0.5472-1.514,0.1929
		C24.6649,34.3754,24.4512,33.5693,24.9573,33.0319z"/>
</g>
<g>
	<path fill="none" stroke="#707070" stroke-width="0.3229" stroke-miterlimit="10" d="M33.7698,35.4908
		c-0.5939-0.0949-1.1752-0.7765-1.1088-1.1922c0.0664-0.4157,0.762-0.4484,1.3558-0.3535c0.5939,0.0949,1.2647,0.346,1.1983,0.7617
		C35.1486,35.1225,34.3636,35.5857,33.7698,35.4908z"/>
</g>
<g>
	<path fill="none" stroke="#707070" stroke-width="0.3059" stroke-miterlimit="10" d="M38.9827,34.0311
		c-0.2017-0.5329,0.0133-1.168,0.3863-1.3092c0.373-0.1412,1.0878,0.1421,1.2895,0.675s-0.0616,1.4427-0.4346,1.5839
		C39.8509,35.1219,39.1844,34.564,38.9827,34.0311z"/>
</g>
<g>
	<path fill="none" stroke="#707070" stroke-width="0.403" stroke-miterlimit="10" d="M44.0997,32.6827
		c0.2055-0.7218,0.4602-1.4393,0.9655-1.2954c0.5053,0.1438,0.6778,0.9829,0.4723,1.7047
		c-0.2055,0.7218-0.7276,1.1111-1.2329,0.9673S43.8942,33.4045,44.0997,32.6827z"/>
</g>
<g>
	<path fill="none" stroke="#707070" stroke-width="0.4077" stroke-miterlimit="10" d="M2.2228,39.3084
		c-0.55-0.5236-0.8219-1.1538-0.4554-1.5388c0.3665-0.385,1.2068-0.3518,1.7568,0.1718s0.4721,1.2162,0.1056,1.6012
		S2.7728,39.8319,2.2228,39.3084z"/>
</g>
<g>
	<path fill="none" stroke="#707070" stroke-width="0.3844" stroke-miterlimit="10" d="M8.6094,37.9641
		c0.4651-0.5443,0.8436-0.8903,1.2246-0.5648s0.5904,1.1738,0.1254,1.7181c-0.4651,0.5443-1.4949,0.6563-1.8759,0.3307
		C7.7024,39.1226,8.1443,38.5084,8.6094,37.9641z"/>
</g>
<g>
	<path fill="none" stroke="#707070" stroke-width="0.3291" stroke-miterlimit="10" d="M12.6112,37.5073
		c0.4247-0.4419,1.2738-0.6273,1.5831-0.33c0.3094,0.2973-0.1184,0.8876-0.5431,1.3295c-0.4247,0.4419-0.6495,0.5307-0.9589,0.2334
		S12.1865,37.9492,12.6112,37.5073z"/>
</g>
<g>
	<path fill="none" stroke="#707070" stroke-width="0.3811" stroke-miterlimit="10" d="M21.9099,40.0247
		c0.5789-0.4106,1.307-0.0102,1.5944,0.395c0.2874,0.4052,0.2311,0.9523-0.3478,1.3628c-0.5789,0.4106-1.2387,0.3713-1.5261-0.0339
		C21.3431,41.3434,21.331,40.4353,21.9099,40.0247z"/>
</g>
<g>
	<path fill="none" stroke="#707070" stroke-width="0.31" stroke-miterlimit="10" d="M26.2839,39.4175
		c0.158-0.5554,0.6238-0.8384,1.0125-0.7279c0.3887,0.1106,0.6421,0.5982,0.4842,1.1536s-0.6416,0.8769-1.0303,0.7664
		C26.3615,40.499,26.126,39.9728,26.2839,39.4175z"/>
</g>
<g>
	<path fill="none" stroke="#707070" stroke-width="0.3299" stroke-miterlimit="10" d="M32.7961,40.5671
		c0.3826-0.4809,0.7525-0.4706,1.0892-0.2028c0.3366,0.2678,0.591,0.7543,0.2084,1.2352s-0.9863,0.4334-1.3229,0.1656
		C32.4343,41.4973,32.4136,41.048,32.7961,40.5671z"/>
</g>
<g>
	<path fill="none" stroke="#707070" stroke-width="0.3339" stroke-miterlimit="10" d="M39.0705,39.562
		c0.5374-0.3129,1.1065,0.0393,1.3255,0.4155c0.219,0.3762,0.1892,0.9504-0.3482,1.2632s-0.9993,0.0249-1.2183-0.3513
		S38.5332,39.8748,39.0705,39.562z"/>
</g>
<g>
	<path fill="none" stroke="#707070" stroke-width="0.3534" stroke-miterlimit="10" d="M42.5666,40.043
		c0.0928-0.6515,0.7054-0.8843,1.1615-0.8193s0.4463,0.3837,0.3535,1.0352s-0.2468,1.4811-0.7028,1.4161
		S42.4737,40.6945,42.5666,40.043z"/>
</g>
<g>
	<path fill="none" stroke="#707070" stroke-width="0.3407" stroke-miterlimit="10" d="M2.3155,44.4094
		c-0.6008-0.2044-0.8791-0.35-0.736-0.7705c0.1431-0.4205,0.5319-0.5996,1.1326-0.3952s1.0354,0.6637,0.8923,1.0842
		C3.4613,44.7484,2.9162,44.6138,2.3155,44.4094z"/>
</g>
<g>
	<path fill="none" stroke="#707070" stroke-width="0.3213" stroke-miterlimit="10" d="M7.0787,45.5116
		c-0.2497-0.5437-0.176-0.7981,0.2047-0.9729s0.6054-0.0576,0.8551,0.4861c0.2497,0.5437,0.3722,1.1828-0.0084,1.3576
		C7.7495,46.5572,7.3284,46.0553,7.0787,45.5116z"/>
</g>
<g>
	<path fill="none" stroke="#707070" stroke-width="0.3936" stroke-miterlimit="10" d="M15.0184,46.4518
		c0.7225-0.1239,1.1515-0.1556,1.2382,0.3502s-0.314,0.7025-1.0364,0.8264c-0.7225,0.1239-1.0749,0.0562-1.1616-0.4496
		S14.296,46.5756,15.0184,46.4518z"/>
</g>
<g>
	<path fill="none" stroke="#707070" stroke-width="0.3704" stroke-miterlimit="10" d="M19.714,45.3488
		c-0.6473-0.2388-1.3096-1.0133-1.1425-1.4664s1.0242-0.2065,1.6715,0.0322c0.6473,0.2388,0.8697,0.3905,0.7026,0.8435
		C20.7785,45.2113,20.3613,45.5876,19.714,45.3488z"/>
</g>
<g>
	<path fill="none" stroke="#707070" stroke-width="0.2954" stroke-miterlimit="10" d="M27.128,46.7501
		c-0.3574-0.4182-0.5922-1.08-0.2994-1.3302c0.2928-0.2502,0.9626,0.0399,1.32,0.4581c0.3574,0.4182,0.4997,1.0785,0.207,1.3287
		C28.0628,47.4568,27.4854,47.1683,27.128,46.7501z"/>
</g>
<g>
	<path fill="none" stroke="#707070" stroke-width="0.3724" stroke-miterlimit="10" d="M32.7938,43.6286
		c0.3052-0.6228,0.8045-0.8809,1.2404-0.6673s0.3877,0.6928,0.0825,1.3156s-0.7199,1.0882-1.1558,0.8746
		S32.4885,44.2514,32.7938,43.6286z"/>
</g>
<g>
	<path fill="none" stroke="#707070" stroke-width="0.4142" stroke-miterlimit="10" d="M38.62,43.7287
		c0.7693-0.0573,1.4593,0.562,1.4994,1.1005c0.0401,0.5385-0.5599,1.1285-1.3292,1.1858c-0.7693,0.0573-1.608-0.4257-1.6481-0.9642
		C37.102,44.5123,37.8507,43.7859,38.62,43.7287z"/>
</g>
<g>
	<path fill="none" stroke="#707070" stroke-width="0.3587" stroke-miterlimit="10" d="M45.8803,43.3651
		c0.6135-0.2643,1.5512,0.0034,1.7362,0.4329c0.185,0.4294-0.3086,1.1923-0.9221,1.4566c-0.6135,0.2643-1.4953,0.0941-1.6804-0.3353
		C44.829,44.4898,45.2668,43.6294,45.8803,43.3651z"/>
</g>
</svg>
