<svg id="Layer_1" data-name="Layer 1" xmlns="http://www.w3.org/2000/svg" width="32" height="32" viewBox="0 0 32 32">
  <polyline points="1 4.7 3 4.7 5 4.7" style="fill: none;stroke: #717960;stroke-linecap: round;stroke-miterlimit: 10;stroke-width: 0.5px"/>
  <polyline points="3 3 3 4.7 1.9 3.6" style="fill: none;stroke: #717960;stroke-linecap: round;stroke-linejoin: bevel;stroke-width: 0.5px"/>
  <line x1="3" y1="4.7" x2="4" y2="3.7" style="fill: none;stroke: #717960;stroke-linecap: round;stroke-linejoin: bevel;stroke-width: 0.5px"/>
  <polyline points="7 7.7 9 7.7 11 7.7" style="fill: none;stroke: #717960;stroke-linecap: round;stroke-miterlimit: 10;stroke-width: 0.5px"/>
  <polyline points="9 6 9 7.7 7.9 6.6" style="fill: none;stroke: #717960;stroke-linecap: round;stroke-linejoin: bevel;stroke-width: 0.5px"/>
  <line x1="9" y1="7.7" x2="10" y2="6.7" style="fill: none;stroke: #717960;stroke-linecap: round;stroke-linejoin: bevel;stroke-width: 0.5px"/>
  <polyline points="13 5.7 15 5.7 17 5.7" style="fill: none;stroke: #717960;stroke-linecap: round;stroke-miterlimit: 10;stroke-width: 0.5px"/>
  <polyline points="15 4 15 5.7 13.9 4.6" style="fill: none;stroke: #717960;stroke-linecap: round;stroke-linejoin: bevel;stroke-width: 0.5px"/>
  <line x1="15" y1="5.7" x2="16" y2="4.7" style="fill: none;stroke: #717960;stroke-linecap: round;stroke-linejoin: bevel;stroke-width: 0.5px"/>
  <polyline points="19 3 21 3 23 3" style="fill: none;stroke: #717960;stroke-linecap: round;stroke-miterlimit: 10;stroke-width: 0.5px"/>
  <polyline points="21 1.3 21 2.9 19.9 1.9" style="fill: none;stroke: #717960;stroke-linecap: round;stroke-linejoin: bevel;stroke-width: 0.5px"/>
  <line x1="21" y1="2.9" x2="22" y2="1.9" style="fill: none;stroke: #717960;stroke-linecap: round;stroke-linejoin: bevel;stroke-width: 0.5px"/>
  <polyline points="25 5.7 27 5.7 29 5.7" style="fill: none;stroke: #717960;stroke-linecap: round;stroke-miterlimit: 10;stroke-width: 0.5px"/>
  <polyline points="27 4 27 5.7 25.9 4.6" style="fill: none;stroke: #717960;stroke-linecap: round;stroke-linejoin: bevel;stroke-width: 0.5px"/>
  <line x1="27" y1="5.7" x2="28" y2="4.7" style="fill: none;stroke: #717960;stroke-linecap: round;stroke-linejoin: bevel;stroke-width: 0.5px"/>
  <polyline points="18 22 20 22 22 22" style="fill: none;stroke: #717960;stroke-linecap: round;stroke-miterlimit: 10;stroke-width: 0.5px"/>
  <polyline points="20 20 20 21.9 18.9 20.7" style="fill: none;stroke: #717960;stroke-linecap: round;stroke-linejoin: bevel;stroke-width: 0.5px"/>
  <line x1="20" y1="21.9" x2="21" y2="20.8" style="fill: none;stroke: #717960;stroke-linecap: round;stroke-linejoin: bevel;stroke-width: 0.5px"/>
  <polyline points="1 28 3 28 5 28" style="fill: none;stroke: #717960;stroke-linecap: round;stroke-miterlimit: 10;stroke-width: 0.5px"/>
  <polyline points="3 26.3 3 27.9 1.9 26.9" style="fill: none;stroke: #717960;stroke-linecap: round;stroke-linejoin: bevel;stroke-width: 0.5px"/>
  <line x1="3" y1="27.9" x2="4" y2="26.9" style="fill: none;stroke: #717960;stroke-linecap: round;stroke-linejoin: bevel;stroke-width: 0.5px"/>
  <polyline points="15 30 17 30 19 30" style="fill: none;stroke: #717960;stroke-linecap: round;stroke-miterlimit: 10;stroke-width: 0.5px"/>
  <polyline points="17 28.3 17 29.9 15.9 28.9" style="fill: none;stroke: #717960;stroke-linecap: round;stroke-linejoin: bevel;stroke-width: 0.5px"/>
  <line x1="17" y1="29.9" x2="18" y2="28.9" style="fill: none;stroke: #717960;stroke-linecap: round;stroke-linejoin: bevel;stroke-width: 0.5px"/>
  <polyline points="9 26.7 11 26.7 13 26.7" style="fill: none;stroke: #717960;stroke-linecap: round;stroke-miterlimit: 10;stroke-width: 0.5px"/>
  <polyline points="11 25 11 26.7 9.9 25.6" style="fill: none;stroke: #717960;stroke-linecap: round;stroke-linejoin: bevel;stroke-width: 0.5px"/>
  <line x1="11" y1="26.7" x2="12" y2="25.7" style="fill: none;stroke: #717960;stroke-linecap: round;stroke-linejoin: bevel;stroke-width: 0.5px"/>
  <polyline points="12 10.7 14 10.7 16 10.7" style="fill: none;stroke: #717960;stroke-linecap: round;stroke-miterlimit: 10;stroke-width: 0.5px"/>
  <polyline points="14 9 14 10.7 12.9 9.6" style="fill: none;stroke: #717960;stroke-linecap: round;stroke-linejoin: bevel;stroke-width: 0.5px"/>
  <line x1="14" y1="10.7" x2="15" y2="9.7" style="fill: none;stroke: #717960;stroke-linecap: round;stroke-linejoin: bevel;stroke-width: 0.5px"/>
  <polyline points="2 14.7 4 14.7 6 14.7" style="fill: none;stroke: #717960;stroke-linecap: round;stroke-miterlimit: 10;stroke-width: 0.5px"/>
  <polyline points="4 13 4 14.7 2.9 13.6" style="fill: none;stroke: #717960;stroke-linecap: round;stroke-linejoin: bevel;stroke-width: 0.5px"/>
  <line x1="4" y1="14.7" x2="5" y2="13.7" style="fill: none;stroke: #717960;stroke-linecap: round;stroke-linejoin: bevel;stroke-width: 0.5px"/>
  <polyline points="7 20.9 8.9 20.9 10.9 20.9" style="fill: none;stroke: #717960;stroke-linecap: round;stroke-miterlimit: 10;stroke-width: 0.5px"/>
  <polyline points="8.9 19.1 8.9 20.8 7.9 19.7" style="fill: none;stroke: #717960;stroke-linecap: round;stroke-linejoin: bevel;stroke-width: 0.5px"/>
  <line x1="8.9" y1="20.8" x2="9.9" y2="19.8" style="fill: none;stroke: #717960;stroke-linecap: round;stroke-linejoin: bevel;stroke-width: 0.5px"/>
  <polyline points="13 17.7 15 17.7 17 17.7" style="fill: none;stroke: #717960;stroke-linecap: round;stroke-miterlimit: 10;stroke-width: 0.5px"/>
  <polyline points="15 16 15 17.7 13.9 16.6" style="fill: none;stroke: #717960;stroke-linecap: round;stroke-linejoin: bevel;stroke-width: 0.5px"/>
  <line x1="15" y1="17.7" x2="16" y2="16.7" style="fill: none;stroke: #717960;stroke-linecap: round;stroke-linejoin: bevel;stroke-width: 0.5px"/>
  <polyline points="21 14 23 14 25 14" style="fill: none;stroke: #717960;stroke-linecap: round;stroke-miterlimit: 10;stroke-width: 0.5px"/>
  <polyline points="23 12.3 23 13.9 21.9 12.9" style="fill: none;stroke: #717960;stroke-linecap: round;stroke-linejoin: bevel;stroke-width: 0.5px"/>
  <line x1="23" y1="13.9" x2="24" y2="12.9" style="fill: none;stroke: #717960;stroke-linecap: round;stroke-linejoin: bevel;stroke-width: 0.5px"/>
  <polyline points="21 14 23 14 25 14" style="fill: none;stroke: #717960;stroke-linecap: round;stroke-miterlimit: 10;stroke-width: 0.5px"/>
  <polyline points="23 12.3 23 13.9 21.9 12.9" style="fill: none;stroke: #717960;stroke-linecap: round;stroke-linejoin: bevel;stroke-width: 0.5px"/>
  <line x1="23" y1="13.9" x2="24" y2="12.9" style="fill: none;stroke: #717960;stroke-linecap: round;stroke-linejoin: bevel;stroke-width: 0.5px"/>
  <polyline points="21 14 23 14 25 14" style="fill: none;stroke: #717960;stroke-linecap: round;stroke-miterlimit: 10;stroke-width: 0.5px"/>
  <polyline points="23 12.3 23 13.9 21.9 12.9" style="fill: none;stroke: #717960;stroke-linecap: round;stroke-linejoin: bevel;stroke-width: 0.5px"/>
  <line x1="23" y1="13.9" x2="24" y2="12.9" style="fill: none;stroke: #717960;stroke-linecap: round;stroke-linejoin: bevel;stroke-width: 0.5px"/>
  <polyline points="21 14 23 14 25 14" style="fill: none;stroke: #717960;stroke-linecap: round;stroke-miterlimit: 10;stroke-width: 0.5px"/>
  <polyline points="23 12.3 23 13.9 21.9 12.9" style="fill: none;stroke: #717960;stroke-linecap: round;stroke-linejoin: bevel;stroke-width: 0.5px"/>
  <line x1="23" y1="13.9" x2="24" y2="12.9" style="fill: none;stroke: #717960;stroke-linecap: round;stroke-linejoin: bevel;stroke-width: 0.5px"/>
  <polyline points="21 14 23 14 25 14" style="fill: none;stroke: #717960;stroke-linecap: round;stroke-miterlimit: 10;stroke-width: 0.5px"/>
  <polyline points="23 12.3 23 13.9 21.9 12.9" style="fill: none;stroke: #717960;stroke-linecap: round;stroke-linejoin: bevel;stroke-width: 0.5px"/>
  <line x1="23" y1="13.9" x2="24" y2="12.9" style="fill: none;stroke: #717960;stroke-linecap: round;stroke-linejoin: bevel;stroke-width: 0.5px"/>
  <polyline points="21 14 23 14 25 14" style="fill: none;stroke: #717960;stroke-linecap: round;stroke-miterlimit: 10;stroke-width: 0.5px"/>
  <polyline points="23 12.3 23 13.9 21.9 12.9" style="fill: none;stroke: #717960;stroke-linecap: round;stroke-linejoin: bevel;stroke-width: 0.5px"/>
  <line x1="23" y1="13.9" x2="24" y2="12.9" style="fill: none;stroke: #717960;stroke-linecap: round;stroke-linejoin: bevel;stroke-width: 0.5px"/>
  <polyline points="25 18.7 27 18.7 29 18.7" style="fill: none;stroke: #717960;stroke-linecap: round;stroke-miterlimit: 10;stroke-width: 0.5px"/>
  <polyline points="27 17 27 18.7 25.9 17.6" style="fill: none;stroke: #717960;stroke-linecap: round;stroke-linejoin: bevel;stroke-width: 0.5px"/>
  <line x1="27" y1="18.7" x2="28" y2="17.7" style="fill: none;stroke: #717960;stroke-linecap: round;stroke-linejoin: bevel;stroke-width: 0.5px"/>
  <polyline points="26 31 28 31 30 31" style="fill: none;stroke: #717960;stroke-linecap: round;stroke-miterlimit: 10;stroke-width: 0.5px"/>
  <polyline points="28 29.3 28 30.9 26.9 29.9" style="fill: none;stroke: #717960;stroke-linecap: round;stroke-linejoin: bevel;stroke-width: 0.5px"/>
  <line x1="28" y1="30.9" x2="29" y2="29.9" style="fill: none;stroke: #717960;stroke-linecap: round;stroke-linejoin: bevel;stroke-width: 0.5px"/>
  <polyline points="24 25 26 25 28 25" style="fill: none;stroke: #717960;stroke-linecap: round;stroke-miterlimit: 10;stroke-width: 0.5px"/>
  <polyline points="26 23.3 26 24.9 24.9 23.9" style="fill: none;stroke: #717960;stroke-linecap: round;stroke-linejoin: bevel;stroke-width: 0.5px"/>
  <line x1="26" y1="24.9" x2="27" y2="23.9" style="fill: none;stroke: #717960;stroke-linecap: round;stroke-linejoin: bevel;stroke-width: 0.5px"/>
</svg>
