<?xml version="1.0" encoding="iso-8859-1"?>
<!-- Generator: Adobe Illustrator 24.3.0, SVG Export Plug-In . SVG Version: 6.00 Build 0)  -->
<svg version="1.1" id="Layer_1" xmlns="http://www.w3.org/2000/svg" xmlns:xlink="http://www.w3.org/1999/xlink" x="0px" y="0px"
	 viewBox="0 0 32 32" xml:space="preserve">
<polyline fill="none" stroke="#717960" stroke-width="0.5" stroke-linecap="round" stroke-miterlimit="10" points="8.0204,2.7478 
	10.0102,2.7478 12,2.7478 "/>
<polyline fill="none" stroke="#717960" stroke-width="0.5" stroke-linecap="round" stroke-linejoin="bevel" stroke-miterlimit="10" points="
	10.0102,1 10.0102,2.6806 8.9414,1.6117 "/>
<line fill="none" stroke="#717960" stroke-width="0.5" stroke-linecap="round" stroke-linejoin="bevel" stroke-miterlimit="10" x1="10.0102" y1="2.6806" x2="11.0054" y2="1.6854"/>
<polyline fill="none" stroke="#717960" stroke-width="0.5" stroke-linecap="round" stroke-miterlimit="10" points="1,4.7478 
	2.9898,4.7478 4.9796,4.7478 "/>
<polyline fill="none" stroke="#717960" stroke-width="0.5" stroke-linecap="round" stroke-linejoin="bevel" stroke-miterlimit="10" points="
	2.9898,3 2.9898,4.6806 1.9209,3.6117 "/>
<line fill="none" stroke="#717960" stroke-width="0.5" stroke-linecap="round" stroke-linejoin="bevel" stroke-miterlimit="10" x1="2.9898" y1="4.6806" x2="3.9849" y2="3.6854"/>
<polyline fill="none" stroke="#717960" stroke-width="0.5" stroke-linecap="round" stroke-miterlimit="10" points="7,7.7478 
	8.9898,7.7478 10.9796,7.7478 "/>
<polyline fill="none" stroke="#717960" stroke-width="0.5" stroke-linecap="round" stroke-linejoin="bevel" stroke-miterlimit="10" points="
	8.9898,6 8.9898,7.6806 7.9209,6.6117 "/>
<line fill="none" stroke="#717960" stroke-width="0.5" stroke-linecap="round" stroke-linejoin="bevel" stroke-miterlimit="10" x1="8.9898" y1="7.6806" x2="9.9849" y2="6.6854"/>
<polyline fill="none" stroke="#717960" stroke-width="0.5" stroke-linecap="round" stroke-miterlimit="10" points="13.0204,5.7478 
	15.0102,5.7478 17,5.7478 "/>
<polyline fill="none" stroke="#717960" stroke-width="0.5" stroke-linecap="round" stroke-linejoin="bevel" stroke-miterlimit="10" points="
	15.0102,4 15.0102,5.6806 13.9414,4.6117 "/>
<line fill="none" stroke="#717960" stroke-width="0.5" stroke-linecap="round" stroke-linejoin="bevel" stroke-miterlimit="10" x1="15.0102" y1="5.6806" x2="16.0054" y2="4.6854"/>
<polyline fill="none" stroke="#717960" stroke-width="0.5" stroke-linecap="round" stroke-miterlimit="10" points="19,5 20.9898,5 
	22.9796,5 "/>
<polyline fill="none" stroke="#717960" stroke-width="0.5" stroke-linecap="round" stroke-linejoin="bevel" stroke-miterlimit="10" points="
	20.9898,3.2522 20.9898,4.9328 19.9209,3.8639 "/>
<line fill="none" stroke="#717960" stroke-width="0.5" stroke-linecap="round" stroke-linejoin="bevel" stroke-miterlimit="10" x1="20.9898" y1="4.9328" x2="21.9849" y2="3.9376"/>
<polyline fill="none" stroke="#717960" stroke-width="0.5" stroke-linecap="round" stroke-miterlimit="10" points="25,5.7478 
	26.9898,5.7478 28.9796,5.7478 "/>
<polyline fill="none" stroke="#717960" stroke-width="0.5" stroke-linecap="round" stroke-linejoin="bevel" stroke-miterlimit="10" points="
	26.9898,4 26.9898,5.6806 25.9209,4.6117 "/>
<line fill="none" stroke="#717960" stroke-width="0.5" stroke-linecap="round" stroke-linejoin="bevel" stroke-miterlimit="10" x1="26.9898" y1="5.6806" x2="27.9849" y2="4.6854"/>
<polyline fill="none" stroke="#717960" stroke-width="0.5" stroke-linecap="round" stroke-miterlimit="10" points="18.0204,22 
	20.0102,22 22,22 "/>
<polyline fill="none" stroke="#717960" stroke-width="0.5" stroke-linecap="round" stroke-linejoin="bevel" stroke-miterlimit="10" points="
	20.0102,20 20.0102,21.9231 18.9414,20.7 "/>
<line fill="none" stroke="#717960" stroke-width="0.5" stroke-linecap="round" stroke-linejoin="bevel" stroke-miterlimit="10" x1="20.0102" y1="21.9231" x2="21.0054" y2="20.7843"/>
<polyline fill="none" stroke="#717960" stroke-width="0.5" stroke-linecap="round" stroke-miterlimit="10" points="1,28 2.9898,28 
	4.9796,28 "/>
<polyline fill="none" stroke="#717960" stroke-width="0.5" stroke-linecap="round" stroke-linejoin="bevel" stroke-miterlimit="10" points="
	2.9898,26.2522 2.9898,27.9328 1.9209,26.8639 "/>
<line fill="none" stroke="#717960" stroke-width="0.5" stroke-linecap="round" stroke-linejoin="bevel" stroke-miterlimit="10" x1="2.9898" y1="27.9328" x2="3.9849" y2="26.9376"/>
<polyline fill="none" stroke="#717960" stroke-width="0.5" stroke-linecap="round" stroke-miterlimit="10" points="3,23.7478 
	4.9898,23.7478 6.9796,23.7478 "/>
<polyline fill="none" stroke="#717960" stroke-width="0.5" stroke-linecap="round" stroke-linejoin="bevel" stroke-miterlimit="10" points="
	4.9898,22 4.9898,23.6806 3.9209,22.6117 "/>
<line fill="none" stroke="#717960" stroke-width="0.5" stroke-linecap="round" stroke-linejoin="bevel" stroke-miterlimit="10" x1="4.9898" y1="23.6806" x2="5.9849" y2="22.6854"/>
<polyline fill="none" stroke="#717960" stroke-width="0.5" stroke-linecap="round" stroke-miterlimit="10" points="6.0102,31 8,31 
	9.9898,31 "/>
<polyline fill="none" stroke="#717960" stroke-width="0.5" stroke-linecap="round" stroke-linejoin="bevel" stroke-miterlimit="10" points="
	8,29.2522 8,30.9328 6.9312,29.8639 "/>
<line fill="none" stroke="#717960" stroke-width="0.5" stroke-linecap="round" stroke-linejoin="bevel" stroke-miterlimit="10" x1="8" y1="30.9328" x2="8.9952" y2="29.9376"/>
<polyline fill="none" stroke="#717960" stroke-width="0.5" stroke-linecap="round" stroke-miterlimit="10" points="15.0102,30 
	17,30 18.9898,30 "/>
<polyline fill="none" stroke="#717960" stroke-width="0.5" stroke-linecap="round" stroke-linejoin="bevel" stroke-miterlimit="10" points="
	17,28.2522 17,29.9328 15.9312,28.8639 "/>
<line fill="none" stroke="#717960" stroke-width="0.5" stroke-linecap="round" stroke-linejoin="bevel" stroke-miterlimit="10" x1="17" y1="29.9328" x2="17.9952" y2="28.9376"/>
<polyline fill="none" stroke="#717960" stroke-width="0.5" stroke-linecap="round" stroke-miterlimit="10" points="9,26.7478 
	10.9898,26.7478 12.9796,26.7478 "/>
<polyline fill="none" stroke="#717960" stroke-width="0.5" stroke-linecap="round" stroke-linejoin="bevel" stroke-miterlimit="10" points="
	10.9898,25 10.9898,26.6806 9.9209,25.6117 "/>
<line fill="none" stroke="#717960" stroke-width="0.5" stroke-linecap="round" stroke-linejoin="bevel" stroke-miterlimit="10" x1="10.9898" y1="26.6806" x2="11.9849" y2="25.6854"/>
<polyline fill="none" stroke="#717960" stroke-width="0.5" stroke-linecap="round" stroke-miterlimit="10" points="13.0204,25 
	15.0102,25 17,25 "/>
<polyline fill="none" stroke="#717960" stroke-width="0.5" stroke-linecap="round" stroke-linejoin="bevel" stroke-miterlimit="10" points="
	15.0102,23.2522 15.0102,24.9328 13.9414,23.8639 "/>
<line fill="none" stroke="#717960" stroke-width="0.5" stroke-linecap="round" stroke-linejoin="bevel" stroke-miterlimit="10" x1="15.0102" y1="24.9328" x2="16.0054" y2="23.9376"/>
<polyline fill="none" stroke="#717960" stroke-width="0.5" stroke-linecap="round" stroke-miterlimit="10" points="24,10.7478 
	25.9898,10.7478 27.9796,10.7478 "/>
<polyline fill="none" stroke="#717960" stroke-width="0.5" stroke-linecap="round" stroke-linejoin="bevel" stroke-miterlimit="10" points="
	25.9898,9 25.9898,10.6806 24.9209,9.6117 "/>
<line fill="none" stroke="#717960" stroke-width="0.5" stroke-linecap="round" stroke-linejoin="bevel" stroke-miterlimit="10" x1="25.9898" y1="10.6806" x2="26.9849" y2="9.6854"/>
<polyline fill="none" stroke="#717960" stroke-width="0.5" stroke-linecap="round" stroke-miterlimit="10" points="12,10.7478 
	13.9898,10.7478 15.9796,10.7478 "/>
<polyline fill="none" stroke="#717960" stroke-width="0.5" stroke-linecap="round" stroke-linejoin="bevel" stroke-miterlimit="10" points="
	13.9898,9 13.9898,10.6806 12.9209,9.6117 "/>
<line fill="none" stroke="#717960" stroke-width="0.5" stroke-linecap="round" stroke-linejoin="bevel" stroke-miterlimit="10" x1="13.9898" y1="10.6806" x2="14.9849" y2="9.6854"/>
<polyline fill="none" stroke="#717960" stroke-width="0.5" stroke-linecap="round" stroke-miterlimit="10" points="8,14 9.9898,14 
	11.9796,14 "/>
<polyline fill="none" stroke="#717960" stroke-width="0.5" stroke-linecap="round" stroke-linejoin="bevel" stroke-miterlimit="10" points="
	9.9898,12.2522 9.9898,13.9328 8.9209,12.8639 "/>
<line fill="none" stroke="#717960" stroke-width="0.5" stroke-linecap="round" stroke-linejoin="bevel" stroke-miterlimit="10" x1="9.9898" y1="13.9328" x2="10.9849" y2="12.9376"/>
<polyline fill="none" stroke="#717960" stroke-width="0.5" stroke-linecap="round" stroke-miterlimit="10" points="1,12.7478 
	2.9898,12.7478 4.9796,12.7478 "/>
<polyline fill="none" stroke="#717960" stroke-width="0.5" stroke-linecap="round" stroke-linejoin="bevel" stroke-miterlimit="10" points="
	2.9898,11 2.9898,12.6806 1.9209,11.6117 "/>
<line fill="none" stroke="#717960" stroke-width="0.5" stroke-linecap="round" stroke-linejoin="bevel" stroke-miterlimit="10" x1="2.9898" y1="12.6806" x2="3.9849" y2="11.6854"/>
<polyline fill="none" stroke="#717960" stroke-width="0.5" stroke-linecap="round" stroke-miterlimit="10" points="1,17.7478 
	2.9898,17.7478 4.9796,17.7478 "/>
<polyline fill="none" stroke="#717960" stroke-width="0.5" stroke-linecap="round" stroke-linejoin="bevel" stroke-miterlimit="10" points="
	2.9898,16 2.9898,17.6806 1.9209,16.6117 "/>
<line fill="none" stroke="#717960" stroke-width="0.5" stroke-linecap="round" stroke-linejoin="bevel" stroke-miterlimit="10" x1="2.9898" y1="17.6806" x2="3.9849" y2="16.6854"/>
<polyline fill="none" stroke="#717960" stroke-width="0.5" stroke-linecap="round" stroke-miterlimit="10" points="7,19.7478 
	8.9898,19.7478 10.9796,19.7478 "/>
<polyline fill="none" stroke="#717960" stroke-width="0.5" stroke-linecap="round" stroke-linejoin="bevel" stroke-miterlimit="10" points="
	8.9898,18 8.9898,19.6806 7.9209,18.6117 "/>
<line fill="none" stroke="#717960" stroke-width="0.5" stroke-linecap="round" stroke-linejoin="bevel" stroke-miterlimit="10" x1="8.9898" y1="19.6806" x2="9.9849" y2="18.6854"/>
<polyline fill="none" stroke="#717960" stroke-width="0.5" stroke-linecap="round" stroke-miterlimit="10" points="13,17.7478 
	14.9898,17.7478 16.9796,17.7478 "/>
<polyline fill="none" stroke="#717960" stroke-width="0.5" stroke-linecap="round" stroke-linejoin="bevel" stroke-miterlimit="10" points="
	14.9898,16 14.9898,17.6806 13.9209,16.6117 "/>
<line fill="none" stroke="#717960" stroke-width="0.5" stroke-linecap="round" stroke-linejoin="bevel" stroke-miterlimit="10" x1="14.9898" y1="17.6806" x2="15.9849" y2="16.6854"/>
<polyline fill="none" stroke="#717960" stroke-width="0.5" stroke-linecap="round" stroke-miterlimit="10" points="21,14 
	22.9898,14 24.9796,14 "/>
<polyline fill="none" stroke="#717960" stroke-width="0.5" stroke-linecap="round" stroke-linejoin="bevel" stroke-miterlimit="10" points="
	22.9898,12.2522 22.9898,13.9328 21.9209,12.8639 "/>
<line fill="none" stroke="#717960" stroke-width="0.5" stroke-linecap="round" stroke-linejoin="bevel" stroke-miterlimit="10" x1="22.9898" y1="13.9328" x2="23.9849" y2="12.9376"/>
<polyline fill="none" stroke="#717960" stroke-width="0.5" stroke-linecap="round" stroke-miterlimit="10" points="21,14 
	22.9898,14 24.9796,14 "/>
<polyline fill="none" stroke="#717960" stroke-width="0.5" stroke-linecap="round" stroke-linejoin="bevel" stroke-miterlimit="10" points="
	22.9898,12.2522 22.9898,13.9328 21.9209,12.8639 "/>
<line fill="none" stroke="#717960" stroke-width="0.5" stroke-linecap="round" stroke-linejoin="bevel" stroke-miterlimit="10" x1="22.9898" y1="13.9328" x2="23.9849" y2="12.9376"/>
<polyline fill="none" stroke="#717960" stroke-width="0.5" stroke-linecap="round" stroke-miterlimit="10" points="21,14 
	22.9898,14 24.9796,14 "/>
<polyline fill="none" stroke="#717960" stroke-width="0.5" stroke-linecap="round" stroke-linejoin="bevel" stroke-miterlimit="10" points="
	22.9898,12.2522 22.9898,13.9328 21.9209,12.8639 "/>
<line fill="none" stroke="#717960" stroke-width="0.5" stroke-linecap="round" stroke-linejoin="bevel" stroke-miterlimit="10" x1="22.9898" y1="13.9328" x2="23.9849" y2="12.9376"/>
<polyline fill="none" stroke="#717960" stroke-width="0.5" stroke-linecap="round" stroke-miterlimit="10" points="21,14 
	22.9898,14 24.9796,14 "/>
<polyline fill="none" stroke="#717960" stroke-width="0.5" stroke-linecap="round" stroke-linejoin="bevel" stroke-miterlimit="10" points="
	22.9898,12.2522 22.9898,13.9328 21.9209,12.8639 "/>
<line fill="none" stroke="#717960" stroke-width="0.5" stroke-linecap="round" stroke-linejoin="bevel" stroke-miterlimit="10" x1="22.9898" y1="13.9328" x2="23.9849" y2="12.9376"/>
<polyline fill="none" stroke="#717960" stroke-width="0.5" stroke-linecap="round" stroke-miterlimit="10" points="21,14 
	22.9898,14 24.9796,14 "/>
<polyline fill="none" stroke="#717960" stroke-width="0.5" stroke-linecap="round" stroke-linejoin="bevel" stroke-miterlimit="10" points="
	22.9898,12.2522 22.9898,13.9328 21.9209,12.8639 "/>
<line fill="none" stroke="#717960" stroke-width="0.5" stroke-linecap="round" stroke-linejoin="bevel" stroke-miterlimit="10" x1="22.9898" y1="13.9328" x2="23.9849" y2="12.9376"/>
<polyline fill="none" stroke="#717960" stroke-width="0.5" stroke-linecap="round" stroke-miterlimit="10" points="21,14 
	22.9898,14 24.9796,14 "/>
<polyline fill="none" stroke="#717960" stroke-width="0.5" stroke-linecap="round" stroke-linejoin="bevel" stroke-miterlimit="10" points="
	22.9898,12.2522 22.9898,13.9328 21.9209,12.8639 "/>
<line fill="none" stroke="#717960" stroke-width="0.5" stroke-linecap="round" stroke-linejoin="bevel" stroke-miterlimit="10" x1="22.9898" y1="13.9328" x2="23.9849" y2="12.9376"/>
<polyline fill="none" stroke="#717960" stroke-width="0.5" stroke-linecap="round" stroke-miterlimit="10" points="18.0204,16.7478 
	20.0102,16.7478 22,16.7478 "/>
<polyline fill="none" stroke="#717960" stroke-width="0.5" stroke-linecap="round" stroke-linejoin="bevel" stroke-miterlimit="10" points="
	20.0102,15 20.0102,16.6806 18.9414,15.6117 "/>
<line fill="none" stroke="#717960" stroke-width="0.5" stroke-linecap="round" stroke-linejoin="bevel" stroke-miterlimit="10" x1="20.0102" y1="16.6806" x2="21.0054" y2="15.6854"/>
<polyline fill="none" stroke="#717960" stroke-width="0.5" stroke-linecap="round" stroke-miterlimit="10" points="18.0204,16.7478 
	20.0102,16.7478 22,16.7478 "/>
<polyline fill="none" stroke="#717960" stroke-width="0.5" stroke-linecap="round" stroke-linejoin="bevel" stroke-miterlimit="10" points="
	20.0102,15 20.0102,16.6806 18.9414,15.6117 "/>
<line fill="none" stroke="#717960" stroke-width="0.5" stroke-linecap="round" stroke-linejoin="bevel" stroke-miterlimit="10" x1="20.0102" y1="16.6806" x2="21.0054" y2="15.6854"/>
<polyline fill="none" stroke="#717960" stroke-width="0.5" stroke-linecap="round" stroke-miterlimit="10" points="18.0204,16.7478 
	20.0102,16.7478 22,16.7478 "/>
<polyline fill="none" stroke="#717960" stroke-width="0.5" stroke-linecap="round" stroke-linejoin="bevel" stroke-miterlimit="10" points="
	20.0102,15 20.0102,16.6806 18.9414,15.6117 "/>
<line fill="none" stroke="#717960" stroke-width="0.5" stroke-linecap="round" stroke-linejoin="bevel" stroke-miterlimit="10" x1="20.0102" y1="16.6806" x2="21.0054" y2="15.6854"/>
<polyline fill="none" stroke="#717960" stroke-width="0.5" stroke-linecap="round" stroke-miterlimit="10" points="18.0204,16.7478 
	20.0102,16.7478 22,16.7478 "/>
<polyline fill="none" stroke="#717960" stroke-width="0.5" stroke-linecap="round" stroke-linejoin="bevel" stroke-miterlimit="10" points="
	20.0102,15 20.0102,16.6806 18.9414,15.6117 "/>
<line fill="none" stroke="#717960" stroke-width="0.5" stroke-linecap="round" stroke-linejoin="bevel" stroke-miterlimit="10" x1="20.0102" y1="16.6806" x2="21.0054" y2="15.6854"/>
<polyline fill="none" stroke="#717960" stroke-width="0.5" stroke-linecap="round" stroke-miterlimit="10" points="18.0204,16.7478 
	20.0102,16.7478 22,16.7478 "/>
<polyline fill="none" stroke="#717960" stroke-width="0.5" stroke-linecap="round" stroke-linejoin="bevel" stroke-miterlimit="10" points="
	20.0102,15 20.0102,16.6806 18.9414,15.6117 "/>
<line fill="none" stroke="#717960" stroke-width="0.5" stroke-linecap="round" stroke-linejoin="bevel" stroke-miterlimit="10" x1="20.0102" y1="16.6806" x2="21.0054" y2="15.6854"/>
<polyline fill="none" stroke="#717960" stroke-width="0.5" stroke-linecap="round" stroke-miterlimit="10" points="18.0204,16.7478 
	20.0102,16.7478 22,16.7478 "/>
<polyline fill="none" stroke="#717960" stroke-width="0.5" stroke-linecap="round" stroke-linejoin="bevel" stroke-miterlimit="10" points="
	20.0102,15 20.0102,16.6806 18.9414,15.6117 "/>
<line fill="none" stroke="#717960" stroke-width="0.5" stroke-linecap="round" stroke-linejoin="bevel" stroke-miterlimit="10" x1="20.0102" y1="16.6806" x2="21.0054" y2="15.6854"/>
<polyline fill="none" stroke="#717960" stroke-width="0.5" stroke-linecap="round" stroke-miterlimit="10" points="25,18.7478 
	26.9898,18.7478 28.9796,18.7478 "/>
<polyline fill="none" stroke="#717960" stroke-width="0.5" stroke-linecap="round" stroke-linejoin="bevel" stroke-miterlimit="10" points="
	26.9898,17 26.9898,18.6806 25.9209,17.6117 "/>
<line fill="none" stroke="#717960" stroke-width="0.5" stroke-linecap="round" stroke-linejoin="bevel" stroke-miterlimit="10" x1="26.9898" y1="18.6806" x2="27.9849" y2="17.6854"/>
<polyline fill="none" stroke="#717960" stroke-width="0.5" stroke-linecap="round" stroke-miterlimit="10" points="20.0204,29 
	22.0102,29 24,29 "/>
<polyline fill="none" stroke="#717960" stroke-width="0.5" stroke-linecap="round" stroke-linejoin="bevel" stroke-miterlimit="10" points="
	22.0102,27.2522 22.0102,28.9328 20.9414,27.8639 "/>
<line fill="none" stroke="#717960" stroke-width="0.5" stroke-linecap="round" stroke-linejoin="bevel" stroke-miterlimit="10" x1="22.0102" y1="28.9328" x2="23.0054" y2="27.9376"/>
<polyline fill="none" stroke="#717960" stroke-width="0.5" stroke-linecap="round" stroke-miterlimit="10" points="26,31 
	27.9898,31 29.9796,31 "/>
<polyline fill="none" stroke="#717960" stroke-width="0.5" stroke-linecap="round" stroke-linejoin="bevel" stroke-miterlimit="10" points="
	27.9898,29.2522 27.9898,30.9328 26.9209,29.8639 "/>
<line fill="none" stroke="#717960" stroke-width="0.5" stroke-linecap="round" stroke-linejoin="bevel" stroke-miterlimit="10" x1="27.9898" y1="30.9328" x2="28.9849" y2="29.9376"/>
<polyline fill="none" stroke="#717960" stroke-width="0.5" stroke-linecap="round" stroke-miterlimit="10" points="25,25 
	26.9898,25 28.9796,25 "/>
<polyline fill="none" stroke="#717960" stroke-width="0.5" stroke-linecap="round" stroke-linejoin="bevel" stroke-miterlimit="10" points="
	26.9898,23.2522 26.9898,24.9328 25.9209,23.8639 "/>
<line fill="none" stroke="#717960" stroke-width="0.5" stroke-linecap="round" stroke-linejoin="bevel" stroke-miterlimit="10" x1="26.9898" y1="24.9328" x2="27.9849" y2="23.9376"/>
</svg>
