<?xml version="1.0" encoding="iso-8859-1"?>
<!-- Generator: Adobe Illustrator 24.3.0, SVG Export Plug-In . SVG Version: 6.00 Build 0)  -->
<svg version="1.1" id="Layer_1" xmlns="http://www.w3.org/2000/svg" xmlns:xlink="http://www.w3.org/1999/xlink" x="0px" y="0px"
	 viewBox="0 0 32 32" xml:space="preserve">
<line fill="none" stroke="#3399FF" stroke-width="0.75" stroke-miterlimit="10" x1="5" y1="1" x2="10.0435" y2="1"/>
<line fill="none" stroke="#3399FF" stroke-width="0.75" stroke-miterlimit="10" x1="26.7391" y1="1" x2="31.1739" y2="1"/>
<line fill="none" stroke="#3399FF" stroke-width="0.75" stroke-miterlimit="10" x1="13.8913" y1="2.8696" x2="18.6522" y2="2.8696"/>
<line fill="none" stroke="#3399FF" stroke-width="0.75" stroke-miterlimit="10" x1="22.0435" y1="2.8696" x2="26.413" y2="2.8696"/>
<line fill="none" stroke="#3399FF" stroke-width="0.75" stroke-miterlimit="10" x1="28.1739" y1="5.2826" x2="32" y2="5.2826"/>
<line fill="none" stroke="#3399FF" stroke-width="0.75" stroke-miterlimit="10" x1="3.2609" y1="4.3696" x2="7.8913" y2="4.3696"/>
<line fill="none" stroke="#3399FF" stroke-width="0.75" stroke-miterlimit="10" x1="8.8696" y1="5.6739" x2="13.1739" y2="5.6739"/>
<line fill="none" stroke="#3399FF" stroke-width="0.75" stroke-miterlimit="10" x1="16" y1="7.6957" x2="20.4783" y2="7.6957"/>
<line fill="none" stroke="#3399FF" stroke-width="0.75" stroke-miterlimit="10" x1="26.7391" y1="7.6957" x2="22.0435" y2="7.6957"/>
<line fill="none" stroke="#3399FF" stroke-width="0.75" stroke-miterlimit="10" x1="5" y1="9.587" x2="0.9783" y2="9.587"/>
<line fill="none" stroke="#3399FF" stroke-width="0.75" stroke-miterlimit="10" x1="13.1739" y1="9.2609" x2="8.8696" y2="9.2609"/>
<line fill="none" stroke="#3399FF" stroke-width="0.75" stroke-miterlimit="10" x1="1.4348" y1="13.0435" x2="5.5761" y2="13.0435"/>
<line fill="none" stroke="#3399FF" stroke-width="0.75" stroke-miterlimit="10" x1="1.4348" y1="19.0435" x2="5.5761" y2="19.0435"/>
<line fill="none" stroke="#3399FF" stroke-width="0.75" stroke-miterlimit="10" x1="7.5217" y1="17.2826" x2="11.5435" y2="17.2826"/>
<line fill="none" stroke="#3399FF" stroke-width="0.75" stroke-miterlimit="10" x1="8.413" y1="13.0435" x2="12.4565" y2="13.0435"/>
<line fill="none" stroke="#3399FF" stroke-width="0.75" stroke-miterlimit="10" x1="15.6522" y1="11.6087" x2="19.5652" y2="11.6087"/>
<line fill="none" stroke="#3399FF" stroke-width="0.75" stroke-miterlimit="10" x1="23.413" y1="11.087" x2="27.6522" y2="11.087"/>
<line fill="none" stroke="#3399FF" stroke-width="0.75" stroke-miterlimit="10" x1="27.6522" y1="13.0435" x2="31.6304" y2="13.0435"/>
<line fill="none" stroke="#3399FF" stroke-width="0.75" stroke-miterlimit="10" x1="24.2283" y1="15" x2="20.4783" y2="15"/>
<line fill="none" stroke="#3399FF" stroke-width="0.75" stroke-miterlimit="10" x1="18.2391" y1="16.3043" x2="14.3478" y2="16.3043"/>
<line fill="none" stroke="#3399FF" stroke-width="0.75" stroke-miterlimit="10" x1="20.9348" y1="18.3261" x2="25.1739" y2="18.3261"/>
<line fill="none" stroke="#3399FF" stroke-width="0.75" stroke-miterlimit="10" x1="26.413" y1="19.5652" x2="30.3913" y2="19.5652"/>
<line fill="none" stroke="#3399FF" stroke-width="0.75" stroke-miterlimit="10" x1="26.413" y1="22.3043" x2="30.3913" y2="22.3043"/>
<line fill="none" stroke="#3399FF" stroke-width="0.75" stroke-miterlimit="10" x1="14.9348" y1="21.1304" x2="18.9783" y2="21.1304"/>
<line fill="none" stroke="#3399FF" stroke-width="0.75" stroke-miterlimit="10" x1="5" y1="21.587" x2="9.1957" y2="21.587"/>
<line fill="none" stroke="#3399FF" stroke-width="0.75" stroke-miterlimit="10" x1="9.5326" y1="23.6087" x2="13.5" y2="23.6087"/>
<line fill="none" stroke="#3399FF" stroke-width="0.75" stroke-miterlimit="10" x1="18.9783" y1="23.6087" x2="23.0543" y2="23.6087"/>
<line fill="none" stroke="#3399FF" stroke-width="0.75" stroke-miterlimit="10" x1="4.2391" y1="25.7609" x2="8.413" y2="25.7609"/>
<line fill="none" stroke="#3399FF" stroke-width="0.75" stroke-miterlimit="10" x1="16.2935" y1="26.2826" x2="20.4783" y2="26.2826"/>
<line fill="none" stroke="#3399FF" stroke-width="0.75" stroke-miterlimit="10" x1="25.5326" y1="25.5" x2="29.6413" y2="25.5"/>
<line fill="none" stroke="#3399FF" stroke-width="0.75" stroke-miterlimit="10" x1="25.5326" y1="29.1522" x2="29.6413" y2="29.1522"/>
<line fill="none" stroke="#3399FF" stroke-width="0.75" stroke-miterlimit="10" x1="22.3533" y1="30.9783" x2="26.413" y2="30.9783"/>
<line fill="none" stroke="#3399FF" stroke-width="0.75" stroke-miterlimit="10" x1="14.3478" y1="30.5217" x2="18.3859" y2="30.5217"/>
<line fill="none" stroke="#3399FF" stroke-width="0.75" stroke-miterlimit="10" x1="9.5326" y1="28.3043" x2="13.5" y2="28.3043"/>
<line fill="none" stroke="#3399FF" stroke-width="0.75" stroke-miterlimit="10" x1="0.9783" y1="29.1522" x2="5" y2="29.1522"/>
<line fill="none" stroke="#3399FF" stroke-width="0.75" stroke-miterlimit="10" x1="5.5761" y1="30.9783" x2="9.5326" y2="30.9783"/>
</svg>
