<?xml version="1.0" encoding="utf-8"?>
<!-- Generator: Adobe Illustrator 24.3.0, SVG Export Plug-In . SVG Version: 6.00 Build 0)  -->
<svg version="1.1" id="Layer_1" xmlns="http://www.w3.org/2000/svg" xmlns:xlink="http://www.w3.org/1999/xlink" x="0px" y="0px"
	 width="14px" height="14px" viewBox="0 0 14 14" xml:space="preserve">
<path d="M4,4L3,5v8h0.7c0,0,0.1,1,0.8,1c0.7,0,0.8-1,0.8-1h3.5c0,0,0.1,1,0.8,1c0.8,0,0.8-1,0.8-1H11V5l-1-1H4z M5,5h4v1H5V5z M4,7
	h6v3H4V7z M4,11h1v1H4V11z M9,11h1v1H9V11z"/>
<polygon points="7,2.2 12,4.2 14,4.2 7,0.2 0,4.2 2,4.2 "/>
</svg>
